<?xml version="1.0" encoding="UTF-8"?>
<svg version="1.1" xmlns="http://www.w3.org/2000/svg" width="512" height="512">
<path d="M0 0 C0.67155349 2.26949102 1.3373963 4.5403961 2 6.8125 C2.37125 8.07707031 2.7425 9.34164062 3.125 10.64453125 C4 14 4 14 4 17 C3.43152344 17.09796875 2.86304688 17.1959375 2.27734375 17.296875 C-5.02845672 18.71168778 -10.49643389 20.42944401 -14.8347168 26.75708008 C-18.78898342 32.87859855 -21.32276886 39.56778521 -23.95703125 46.32421875 C-24.50887454 47.71634359 -25.06168604 49.10808498 -25.61540222 50.49946594 C-27.06610377 54.15179367 -28.50450189 57.80883872 -29.94000244 61.46716309 C-31.65845007 65.84027872 -33.39106108 70.20779524 -35.121768 74.57606983 C-36.47486292 77.99197547 -37.82607399 81.40857143 -39.17012024 84.82804871 C-43.6751563 96.2652971 -48.34405875 107.61881027 -53 119 C44.02 119 141.04 119 241 119 C227.78395367 69.98378623 227.78395367 69.98378623 194 19 C190.69424426 18.06859729 187.40160887 17.45856699 184 17 C185.23876645 11.30694567 186.56276003 5.64629987 188 0 C198.11645203 0.33721507 206.44549132 4.24582529 213.875 11.125 C223.15781581 21.42315858 227.23358699 35.87973707 232.125 48.625 C233.18368313 51.3664321 234.24400676 54.10722591 235.30441284 56.84799194 C235.95810072 58.53936442 236.6104891 60.23124 237.26126099 61.92373657 C239.45912115 67.63552277 241.71503469 73.32251632 244 79 C245.09115112 78.68385742 245.09115112 78.68385742 246.2043457 78.36132812 C255.15878276 76.00835757 263.59237588 75.47232954 272.81225586 75.49902344 C275.19570104 75.50000337 277.57599459 75.45806067 279.95898438 75.4140625 C288.48479527 75.34650167 295.94881371 75.53758484 303 81 C309.17240371 87.66418872 310.30485056 92.82134975 310.21484375 101.83203125 C309.77403008 108.33202914 306.69230006 111.76548531 302 116 C301.4225 116.556875 300.845 117.11375 300.25 117.6875 C293.38468918 121.69226464 284.65133902 121.39139478 276.9375 121.625 C275.88111328 121.66367188 274.82472656 121.70234375 273.73632812 121.7421875 C271.15771592 121.83553093 268.57909392 121.92131253 266 122 C266.59425781 122.53367187 267.18851562 123.06734375 267.80078125 123.6171875 C269.04408203 124.73480469 269.04408203 124.73480469 270.3125 125.875 C271.22773438 126.69742188 272.14296875 127.51984375 273.0859375 128.3671875 C274.97352605 130.07259592 276.85421648 131.78568335 278.7265625 133.5078125 C283.17816695 137.60020968 287.66183345 141.58531311 292.375 145.375 C315.22142666 163.99303493 315.22142666 163.99303493 318 177 C318.09229352 178.34824508 318.1388009 179.70015451 318.14717102 181.05152893 C318.15790398 182.24756996 318.15790398 182.24756996 318.16885376 183.46777344 C318.17154266 184.33378174 318.17423157 185.19979004 318.17700195 186.09204102 C318.18357315 187.01129868 318.19014435 187.93055634 318.19691467 188.87767029 C318.21662214 191.91974982 318.22830675 194.96177996 318.23828125 198.00390625 C318.24235678 199.04563429 318.2464323 200.08736233 318.25063133 201.16065788 C318.27148462 206.67814815 318.28578764 212.19561363 318.29516602 217.71313477 C318.30620816 223.39335631 318.34058509 229.07318372 318.38033772 234.75326633 C318.40657292 239.1363952 318.41486415 243.5194313 318.41844749 247.90263176 C318.42329828 249.99525542 318.43486888 252.08787536 318.45348549 254.18042183 C318.58004534 269.35327267 318.0090749 281.46772154 307 293 C295.87300442 303.62217915 283.96716037 304.58306576 269.30078125 304.390625 C267.61257096 304.38314921 265.92435189 304.37746262 264.23612976 304.37347412 C259.82849464 304.35832285 255.42140077 304.31913413 251.01397705 304.2746582 C246.50223102 304.23347645 241.99039611 304.21541458 237.47851562 304.1953125 C228.65209751 304.1526276 219.8261164 304.08450675 211 304 C208.52674205 297.95246781 206.21460312 291.89307933 204.16015625 285.69140625 C203.65001285 284.18783712 203.13891836 282.6845904 202.62695312 281.18164062 C201.83720713 278.85832096 201.05302674 276.53377703 200.28442383 274.20336914 C199.53006312 271.92269397 198.7535169 269.6506225 197.97265625 267.37890625 C197.74852554 266.68205215 197.52439484 265.98519806 197.29347229 265.26722717 C196.24909667 262.28447853 195.38408603 260.30570257 192.88594055 258.31737328 C189.27625453 256.66962489 186.10879717 256.58296232 182.21923828 256.61904907 C181.44261904 256.6143691 180.66599979 256.60968913 179.86584663 256.60486734 C177.26716082 256.59291465 174.6690021 256.60237551 172.0703125 256.61181641 C170.20578707 256.60775082 168.34126406 256.60240902 166.47674561 256.59588623 C161.41482389 256.58220526 156.35308552 256.58751454 151.29116058 256.59702349 C145.99504602 256.60461601 140.69894721 256.59757561 135.40283203 256.59286499 C126.50876037 256.58740626 117.61476344 256.59460216 108.72070312 256.60888672 C98.43632329 256.62521344 88.15212187 256.61992501 77.86774635 256.6034075 C69.03959945 256.58979601 60.21150628 256.58787133 51.38335228 256.59572351 C46.10988821 256.60040187 40.83650801 256.60102036 35.56304932 256.59111404 C30.60539645 256.5824516 25.64797375 256.58845316 20.69034576 256.60579681 C18.87025586 256.6097655 17.05014661 256.60862108 15.23006439 256.60200882 C12.74670151 256.59381831 10.26407746 256.60408441 7.78076172 256.61904907 C7.05945635 256.61235691 6.33815098 256.60566474 5.59498787 256.59876978 C1.23629344 256.64976165 -1.56683279 257.26683793 -5 260 C-6.30590863 262.59684125 -7.30439911 264.96407446 -8.25 267.6875 C-8.53375488 268.45900391 -8.81750977 269.23050781 -9.10986328 270.02539062 C-9.73710042 271.73244115 -10.35734063 273.44207397 -10.97167969 275.15380859 C-12.4933171 279.36540617 -14.07436813 283.55424052 -15.65136719 287.74536133 C-16.46004301 289.89629057 -17.26544248 292.04845477 -18.06738281 294.2019043 C-18.43444336 295.18715088 -18.80150391 296.17239746 -19.1796875 297.1875 C-19.50694824 298.06792969 -19.83420898 298.94835937 -20.17138672 299.85546875 C-21 302 -21 302 -22 304 C-31.84949356 304.09304864 -41.69888101 304.16394085 -51.54872608 304.20724869 C-56.12338194 304.22804377 -60.6977351 304.256212 -65.2722168 304.30175781 C-69.69428635 304.3455061 -74.11606638 304.36919773 -78.5383358 304.37950897 C-80.21789794 304.38684871 -81.89744584 304.40118034 -83.57688332 304.42292023 C-97.49697767 304.59579883 -108.55092215 302.95526509 -119 293 C-130.84903224 280.79901631 -130.61557678 266.44952223 -130.56640625 250.46875 C-130.57165136 248.38472213 -130.57793106 246.30069663 -130.58518982 244.2166748 C-130.59555195 239.86617801 -130.59109219 235.51600917 -130.57641602 231.16552734 C-130.55922309 225.61770676 -130.58275256 220.07092147 -130.61790562 214.52321625 C-130.63996669 210.22492744 -130.63841727 205.92688313 -130.6301403 201.6285553 C-130.62932578 199.58422204 -130.63609263 197.53986992 -130.65091133 195.49559021 C-130.74366875 180.38809745 -129.62275473 168.89024368 -118.65234375 157.5 C-114.64237921 153.72035743 -110.46223804 150.17185621 -106.2109375 146.66796875 C-102.46290819 143.57656921 -98.87031013 140.32371599 -95.2734375 137.05859375 C-89.61019795 131.93054007 -83.80345013 126.96786688 -78 122 C-78.65484375 121.98018066 -79.3096875 121.96036133 -79.984375 121.93994141 C-82.98994448 121.84389478 -85.99489331 121.73454216 -89 121.625 C-90.02996094 121.5940625 -91.05992188 121.563125 -92.12109375 121.53125 C-101.32192984 121.17962569 -109.56476127 120.46535086 -116.41015625 113.58203125 C-121.34005209 107.9909832 -122.48090444 103.12149977 -122.3046875 95.84765625 C-121.72222999 90.40391874 -120.08796443 86.07019452 -116.1640625 82.1796875 C-109.91097733 77.22034409 -104.02230956 75.68882233 -96.07421875 75.734375 C-95.32719193 75.73246155 -94.5801651 75.7305481 -93.8105011 75.72857666 C-92.23637554 75.72722161 -90.66223856 75.73087033 -89.08813477 75.73925781 C-86.70497907 75.74992179 -84.32258493 75.73936313 -81.93945312 75.7265625 C-74.38880418 75.71983348 -67.31114085 75.89990809 -60 78 C-58.66786887 78.33810583 -57.3348233 78.67268419 -56 79 C-55.59273682 77.96407715 -55.18547363 76.9281543 -54.76586914 75.86083984 C-54.18901126 74.39418747 -53.61210264 72.92755506 -53.03515625 71.4609375 C-52.57224937 70.2840889 -52.57224937 70.2840889 -52.09999084 69.08346558 C-50.39792643 64.75895114 -48.69163182 60.4361666 -46.97802734 56.11621094 C-46.6346936 55.25056519 -46.29135986 54.38491943 -45.93762207 53.49304199 C-45.24754808 51.75317027 -44.55736257 50.01334277 -43.86706543 48.27355957 C-41.97909138 43.50573359 -40.12684677 38.72746226 -38.31640625 33.9296875 C-33.11524238 20.31319514 -27.46033092 10.03186253 -14 3 C-9.22696988 0.9488449 -5.21977842 -0.16425876 0 0 Z M-105 181 C-106.87360347 189.50009808 -103.93706834 198.23677518 -99.4921875 205.4453125 C-92.29536455 215.32002306 -83.14666796 221.32299559 -71.09448242 223.53271484 C-65.66132161 224.27691199 -60.18884937 224.18246865 -54.71484375 224.203125 C-53.540392 224.20882507 -52.36594025 224.21452515 -51.15589905 224.22039795 C-48.68068332 224.22981579 -46.20545524 224.23636909 -43.73022461 224.24023438 C-39.94688225 224.24997584 -36.16407528 224.28104488 -32.38085938 224.3125 C-29.97135738 224.31902735 -27.56185152 224.32427887 -25.15234375 224.328125 C-24.02408676 224.3404718 -22.89582977 224.3528186 -21.73338318 224.36553955 C-16.12111525 224.34962103 -11.77708651 224.32821081 -7 221 C-5.54168879 218.08337759 -5.6537403 216.25806442 -6 213 C-7.29104466 210.24169017 -8.97626612 207.80059061 -10.70703125 205.30078125 C-11.18822922 204.58391647 -11.66942719 203.8670517 -12.16520691 203.12846375 C-13.70153587 200.84753525 -15.2570098 198.58039171 -16.8125 196.3125 C-17.84819878 194.77619459 -18.88271731 193.23909283 -19.91601562 191.70117188 C-20.90778651 190.2336529 -21.90059061 188.76683154 -22.89453125 187.30078125 C-23.36027054 186.61325272 -23.82600983 185.92572418 -24.30586243 185.21736145 C-24.74609238 184.57626938 -25.18632233 183.93517731 -25.63989258 183.2746582 C-26.02405838 182.71317581 -26.40822418 182.15169342 -26.80403137 181.57319641 C-27.19870102 181.0540416 -27.59337067 180.53488678 -28 180 C-28.4054303 179.44579376 -28.8108606 178.89158752 -29.22857666 178.32058716 C-31.96116267 176.28345808 -34.33349743 176.6108105 -37.70288086 176.59594727 C-38.37964371 176.58908401 -39.05640656 176.58222076 -39.75367737 176.57514954 C-41.99094623 176.55684734 -44.22751608 176.56072371 -46.46484375 176.56640625 C-48.02039315 176.56184586 -49.57594054 176.55654071 -51.13148499 176.55052185 C-54.39234601 176.54158392 -57.65296222 176.54402123 -60.91381836 176.55395508 C-65.09163478 176.56544237 -69.26860568 176.54524132 -73.446311 176.51603794 C-76.65911727 176.49768616 -79.87172058 176.49796635 -83.08456612 176.50367546 C-84.62474312 176.50382882 -86.16493377 176.49777224 -87.70506096 176.48538399 C-89.85982047 176.47049501 -92.01301392 176.48113315 -94.16772461 176.49829102 C-95.39333603 176.49845718 -96.61894745 176.49862335 -97.88169861 176.49879456 C-101.5852207 177.09406268 -102.76138161 178.04626061 -105 181 Z M-1.43669128 178.82598114 C-3.77093639 182.07210447 -3.55844898 184.0807927 -3 188 C-1.80476098 190.65723192 -0.23011109 192.95303968 1.453125 195.32421875 C2.13807037 196.32724785 2.13807037 196.32724785 2.83685303 197.35054016 C3.80116905 198.75655878 4.77320196 200.15731242 5.75244141 201.55297852 C7.245757 203.6814523 8.71648467 205.82410382 10.18359375 207.97070312 C11.12632967 209.33942038 12.07029954 210.70728872 13.015625 212.07421875 C13.45432922 212.70970139 13.89303345 213.34518402 14.34503174 213.99992371 C18.62587658 220.31250865 18.62587658 220.31250865 25 224 C26.85118448 224.09702461 28.70568518 224.13496659 30.55940247 224.14044189 C32.2943119 224.14900711 32.2943119 224.14900711 34.06427002 224.15774536 C35.96955475 224.15942215 35.96955475 224.15942215 37.91333008 224.16113281 C39.26362748 224.16576182 40.61392357 224.17078659 41.96421814 224.17617798 C45.63374732 224.18929642 49.3032582 224.19574589 52.97280717 224.20018864 C55.26591313 224.20312037 57.55901409 224.20722538 59.85211754 224.21169281 C67.02821893 224.22536653 74.2043089 224.23503369 81.38042241 224.2388947 C89.66134841 224.24337473 97.94210929 224.26092048 106.22298509 224.2898953 C112.62563757 224.31151972 119.02824362 224.32159939 125.43093222 224.32293582 C129.25411209 224.32398334 133.07713671 224.32987979 136.90027809 224.34775543 C140.49787946 224.36424929 144.09520912 224.3663854 147.69283485 224.35761642 C149.63829144 224.35648046 151.58373906 224.37018786 153.52914429 224.3843689 C162.88658846 224.39071824 162.88658846 224.39071824 170.55673218 219.43353271 C170.93423615 218.87506653 171.31174011 218.31660034 171.70068359 217.74121094 C172.14068695 217.10334656 172.58069031 216.46548218 173.0340271 215.80828857 C173.48428253 215.12389709 173.93453796 214.43950562 174.3984375 213.734375 C174.8782608 213.02275208 175.35808411 212.31112915 175.85244751 211.57794189 C176.85920003 210.07624809 177.85895328 208.56984087 178.85205078 207.05908203 C180.3704025 204.75697069 181.91955454 202.47798621 183.47265625 200.19921875 C184.44985004 198.73305759 185.4251749 197.2656487 186.3984375 195.796875 C186.86083832 195.12058044 187.32323914 194.44428589 187.7996521 193.74749756 C190.60448569 189.41477324 191.87486391 186.30957368 191 181 C189.49635426 178.68361549 189.49635426 178.68361549 187 177 C184.35568544 176.60687726 182.12690461 176.45882759 179.48461914 176.49206543 C178.72448297 176.48582547 177.96434679 176.4795855 177.18117619 176.47315645 C174.63218804 176.45719203 172.08415161 176.46984365 169.53515625 176.48242188 C167.70856162 176.47700227 165.88197136 176.46988052 164.0553894 176.46118164 C159.0925973 176.44292611 154.13013733 176.45002503 149.16733932 176.46269798 C143.97751714 176.47281409 138.78772368 176.46343617 133.59790039 176.45715332 C124.88194667 176.44987287 116.16612846 176.45947508 107.45019531 176.47851562 C97.36855618 176.5002851 87.28724061 176.49323401 77.20560932 176.47121 C68.55497878 176.45306736 59.90444572 176.45049213 51.2538023 176.46096468 C46.08484785 176.46720585 40.91604555 176.4680181 35.74710083 176.45481873 C30.88788812 176.44327739 26.02909319 176.45125454 21.16992569 176.47439575 C19.38489603 176.47969203 17.59983131 176.4781534 15.81481552 176.46934509 C13.38119344 176.45844193 10.94891679 176.47208852 8.51538086 176.49206543 C7.80604432 176.48314254 7.09670778 176.47421966 6.3658762 176.46502638 C3.0283132 176.51830707 1.26545997 176.8010725 -1.43669128 178.82598114 Z M215.31152344 180.12548828 C214.49883802 181.39087638 213.72640971 182.68318811 213 184 C212.19995067 185.12652384 211.39164549 186.24723549 210.57470703 187.36157227 C209.79688564 188.50946033 209.02471431 189.66119426 208.2578125 190.81640625 C207.63795975 191.74573219 207.63795975 191.74573219 207.00558472 192.6938324 C206.14427975 193.99032443 205.28566486 195.28860743 204.4296875 196.58862305 C203.11993365 198.57016494 201.79077974 200.53776136 200.4609375 202.50585938 C199.62117164 203.77523264 198.78258735 205.04538855 197.9453125 206.31640625 C197.35014328 207.18852501 197.35014328 207.18852501 196.74295044 208.07826233 C194.29814934 211.85389751 193.40830163 214.51649993 194 219 C196.23206431 221.84780619 197.54992999 222.84997666 201 224 C202.68956358 224.10242814 204.38282152 224.14843839 206.07543945 224.16113281 C207.11114578 224.17074036 208.14685211 224.1803479 209.21394348 224.19024658 C210.89661568 224.1966214 210.89661568 224.1966214 212.61328125 224.203125 C213.7744194 224.20882507 214.93555756 224.21452515 216.13188171 224.22039795 C218.59743335 224.22985618 221.06299768 224.23638518 223.52856445 224.24023438 C227.25951078 224.24986324 230.98988795 224.2808473 234.72070312 224.3125 C259.80257824 224.71779213 259.80257824 224.71779213 281.21484375 212.9609375 C288.32906516 205.46252164 293.04047711 196.92277178 293.3125 186.5 C293.34988281 185.5615625 293.38726562 184.623125 293.42578125 183.65625 C292.86131515 180.13481013 291.79584633 179.17995867 289 177 C285.81994127 176.37388965 285.81994127 176.37388965 282.21533203 176.43481445 C281.54163574 176.4229863 280.86793945 176.41115814 280.17382812 176.39897156 C277.95148971 176.36613161 275.73037743 176.36312753 273.5078125 176.36328125 C271.95848086 176.35296334 270.40915401 176.34189987 268.85983276 176.3301239 C265.61329577 176.31069712 262.36718949 176.30726788 259.12060547 176.3137207 C254.96821758 176.31971422 250.81806736 176.27550497 246.6661396 176.21783161 C243.46605992 176.18078451 240.26651711 176.17593321 237.06624985 176.18010521 C235.53604837 176.17723897 234.00582423 176.16320866 232.47583389 176.13762856 C223.02431054 175.59975199 223.02431054 175.59975199 215.31152344 180.12548828 Z " fill="#000000" transform="translate(162,128)"/>
<path d="M0 0 C1.42033063 1.2007757 2.81480985 2.43254058 4.1875 3.6875 C5.52554688 4.88826172 5.52554688 4.88826172 6.890625 6.11328125 C21.08989646 19.51723833 30.81071223 38.28301617 31.62109375 58.01953125 C31.6447833 60.17955799 31.64561186 62.3399417 31.625 64.5 C31.61597656 65.64001465 31.60695313 66.7800293 31.59765625 67.95458984 C31.21608177 86.58019406 24.46034033 103.6219976 12.1875 117.6875 C11.41535156 118.65558594 10.64320313 119.62367188 9.84765625 120.62109375 C-2.79090675 135.76175545 -23.55738209 143.63855671 -42.6875 145.5625 C-65.27278383 146.58100209 -86.76547141 139.51850453 -103.89453125 124.5390625 C-113.44777936 115.46843081 -120.15665438 104.95786409 -124.8125 92.6875 C-125.245625 91.57632813 -125.67875 90.46515625 -126.125 89.3203125 C-132.65446363 69.32383013 -130.06086145 46.94946104 -121 28.3125 C-117.87049874 22.2330886 -114.44355621 16.75300659 -109.8125 11.6875 C-109.01199219 10.79546875 -108.21148437 9.9034375 -107.38671875 8.984375 C-97.92462669 -1.03914365 -86.85309993 -7.80632411 -73.8125 -12.3125 C-72.88953125 -12.6321875 -71.9665625 -12.951875 -71.015625 -13.28125 C-46.94947232 -20.15729362 -19.9763584 -14.78677063 0 0 Z M-58.8125 18.6875 C-59.92890955 21.78610609 -60.2439599 24.41991038 -59.8125 27.6875 C-57.44697125 31.75325254 -55.6461144 33.30858436 -51.375 35.25 C-47.02199253 35.78457986 -45.39772423 35.15732114 -41.8125 32.6875 C-39.24863559 30.45233615 -37.95017828 28.97094157 -37.58203125 25.5390625 C-37.78075649 21.10822573 -38.47387462 19.09219862 -41.375 15.625 C-48.20766028 11.77386421 -53.60039577 12.45839983 -58.8125 18.6875 Z M-53.53198242 54.06152344 C-56.97965385 58.03145748 -56.44027831 61.61220351 -56.30078125 66.703125 C-56.29370651 67.67409119 -56.28663177 68.64505737 -56.27934265 69.64544678 C-56.25137633 72.74358494 -56.18863268 75.83990908 -56.125 78.9375 C-56.09992007 81.03903638 -56.07710637 83.14060112 -56.05664062 85.2421875 C-56.00154207 90.39132287 -55.91525293 95.539104 -55.8125 100.6875 C-56.9159375 100.81898438 -58.019375 100.95046875 -59.15625 101.0859375 C-62.78506398 101.43161157 -62.78506398 101.43161157 -65.3125 103.3125 C-67.13781939 105.72148738 -67.13781939 105.72148738 -66.75 109.25 C-65.70675301 113.18681136 -65.70675301 113.18681136 -62.8125 115.6875 C-58.19776851 116.36805716 -53.53426634 116.19679529 -48.875 116.1875 C-46.94237305 116.23003906 -46.94237305 116.23003906 -44.97070312 116.2734375 C-43.73384766 116.27601563 -42.49699219 116.27859375 -41.22265625 116.28125 C-39.52314819 116.29188477 -39.52314819 116.29188477 -37.78930664 116.30273438 C-34.6223776 115.93309109 -34.6223776 115.93309109 -32.44311523 113.31054688 C-30.60592623 110.35520047 -30.11494015 109.08810427 -30.8125 105.6875 C-33.01410324 102.63912628 -34.24254592 101.79781369 -37.9609375 101.078125 C-38.90195312 100.94921875 -39.84296875 100.8203125 -40.8125 100.6875 C-40.80202637 99.50196533 -40.79155273 98.31643066 -40.78076172 97.0949707 C-40.74450258 92.68744946 -40.72157796 88.27994135 -40.70263672 83.87231445 C-40.69259263 81.9663674 -40.67895484 80.06043571 -40.66162109 78.15454102 C-40.63730282 75.41158248 -40.62600088 72.66882809 -40.6171875 69.92578125 C-40.60686493 69.07663651 -40.59654236 68.22749176 -40.58590698 67.35261536 C-40.58509193 63.03381022 -40.7003264 59.57910753 -42.8125 55.6875 C-46.3212962 52.29566368 -49.02961185 51.78669252 -53.53198242 54.06152344 Z " fill="#000000" transform="translate(304.8125,47.3125)"/>
<path d="M0 0 C59.07 0 118.14 0 179 0 C182.00811055 7.21946532 184.89949841 14.22682626 187.3125 21.625 C187.57611328 22.41261719 187.83972656 23.20023437 188.11132812 24.01171875 C190 29.73169643 190 29.73169643 190 32 C123.67 32 57.34 32 -11 32 C-7.75892191 21.19640638 -3.85461668 10.60019587 0 0 Z " fill="#000000" transform="translate(167,400)"/>
<path d="M0 0 C2.6271715 1.04501387 5.2414317 2.10361306 7.83984375 3.21875 C8.86207031 3.6415625 9.88429688 4.064375 10.9375 4.5 C11.93652344 4.9228125 12.93554688 5.345625 13.96484375 5.78125 C24.63233096 9.44882951 36.44050536 9.32024999 47.5859375 9.4140625 C49.02325475 9.43283499 50.46056168 9.45241257 51.89785767 9.4727478 C55.62945386 9.52343446 59.36108556 9.56339368 63.09283447 9.60089111 C66.92134921 9.64133569 70.74972453 9.69224043 74.578125 9.7421875 C82.05198668 9.83819209 89.52591754 9.9228307 97 10 C97.01110483 11.60659242 97.01904343 13.21320694 97.02563477 14.81982422 C97.03039322 15.71450409 97.03515167 16.60918396 97.04005432 17.53097534 C96.91819577 25.04256878 94.07364051 30.64571523 89.20703125 36.2109375 C81.48727745 42.46872023 74.56813965 42.59170845 64.9375 42.53125 C63.57804081 42.5339504 62.21858351 42.53783735 60.85913086 42.54284668 C58.02145854 42.54871618 55.18429272 42.5402625 52.34667969 42.52148438 C48.72869032 42.49869517 45.11188819 42.51183219 41.49394226 42.53577423 C38.69013699 42.55030219 35.88660828 42.54559459 33.08279419 42.53526306 C31.1065391 42.53133748 29.13027279 42.54337998 27.15405273 42.55578613 C18.85899184 42.46969441 13.17162567 41.65562319 6.7578125 36.03515625 C6.21898437 35.38417969 5.68015625 34.73320312 5.125 34.0625 C4.57070313 33.41410156 4.01640625 32.76570313 3.4453125 32.09765625 C0.50758893 27.83398718 -0.24799685 24.17969302 -0.1953125 19.04296875 C-0.18886719 17.93115234 -0.18242188 16.81933594 -0.17578125 15.67382812 C-0.15902344 14.52333984 -0.14226563 13.37285156 -0.125 12.1875 C-0.11597656 11.01767578 -0.10695312 9.84785156 -0.09765625 8.64257812 C-0.07413732 5.76150947 -0.04126852 2.88086011 0 0 Z " fill="#000000" transform="translate(40,438)"/>
<path d="M0 0 C0.11710979 3.99974981 0.18755489 7.99905281 0.25 12 C0.28351563 13.12535156 0.31703125 14.25070312 0.3515625 15.41015625 C0.4469212 23.56332516 -0.53859162 29.05000316 -5.96484375 35.2421875 C-6.61582031 35.78101563 -7.26679688 36.31984375 -7.9375 36.875 C-8.58589844 37.42929687 -9.23429687 37.98359375 -9.90234375 38.5546875 C-14.20549523 41.51961496 -17.95217017 42.25348937 -23.13208008 42.29052734 C-24.34716751 42.30328705 -25.56225494 42.31604675 -26.81416321 42.32919312 C-28.11943466 42.33141876 -29.42470612 42.33364441 -30.76953125 42.3359375 C-32.13327675 42.34237165 -33.49702089 42.34910046 -34.86076355 42.35610962 C-37.71620887 42.36806362 -40.57153339 42.37179248 -43.42700195 42.37060547 C-47.0685311 42.37040257 -50.70927728 42.39768171 -54.35062122 42.43214989 C-57.16724637 42.45449725 -59.98368556 42.45844061 -62.80039024 42.45738602 C-64.7899848 42.460864 -66.77952131 42.48247958 -68.76899719 42.50448608 C-77.11499771 42.46254794 -82.78882416 41.69028127 -89.2421875 36.03515625 C-94.98225771 29.10038243 -97.07296794 23.3774563 -97.0234375 14.296875 C-97.02005371 13.49088867 -97.01666992 12.68490234 -97.01318359 11.85449219 C-97.00883301 11.24250977 -97.00448242 10.63052734 -97 10 C-96.21676361 9.99191315 -95.43352722 9.98382629 -94.6265564 9.97549438 C-87.18441265 9.89700853 -79.74244998 9.80956366 -72.30052757 9.71247292 C-68.47610351 9.6628825 -64.65170222 9.61655496 -60.82714844 9.578125 C-57.12467171 9.54079427 -53.42240512 9.49431749 -49.72011185 9.44193649 C-48.3194313 9.42364251 -46.91870617 9.40844633 -45.51795578 9.39665604 C-33.83575457 9.29496356 -21.73658292 9.04131711 -10.8125 4.5 C-9.76707031 4.0771875 -8.72164063 3.654375 -7.64453125 3.21875 C-0.66025641 0 -0.66025641 0 0 0 Z " fill="#000000" transform="translate(472,438)"/>
</svg>
