<?xml version="1.0" encoding="UTF-8"?>
<svg version="1.1" xmlns="http://www.w3.org/2000/svg" width="512" height="512">
<path d="M0 0 C0.69732192 -0.00367669 1.39464383 -0.00735338 2.11309671 -0.01114148 C4.44963219 -0.02215387 6.78612315 -0.02601805 9.12268066 -0.02983093 C10.79836162 -0.03609762 12.47404118 -0.04274461 14.14971924 -0.04974365 C19.65436844 -0.0707688 25.15901787 -0.08114726 30.66369629 -0.09111023 C32.5616304 -0.09515891 34.45956436 -0.09927586 36.35749817 -0.10346031 C45.2785088 -0.12251165 54.19951118 -0.13674062 63.12053823 -0.14507228 C73.40104761 -0.15483314 83.68134102 -0.18112279 93.96177435 -0.22157317 C101.91781717 -0.2517975 109.87379832 -0.26654729 117.8298974 -0.26985329 C122.57661177 -0.27219733 127.32309541 -0.28107269 132.06974792 -0.30631447 C136.54153682 -0.32970979 141.01294497 -0.33378269 145.48477936 -0.32355309 C147.11811342 -0.32306033 148.75146695 -0.32930337 150.38474274 -0.34310913 C164.08708602 -0.45236723 174.92883972 1.75097477 186.06994629 10.14717102 C186.93619629 10.72467102 187.80244629 11.30217102 188.69494629 11.89717102 C197.04487794 19.80763258 201.70724341 30.86263947 206.71569824 41.02705383 C208.02038377 43.67341275 209.33814235 46.31295718 210.65783691 48.95185852 C211.49258357 50.63116732 212.32659563 52.31084153 213.15979004 53.99092102 C213.55343246 54.78043152 213.94707489 55.56994202 214.35264587 56.38337708 C217.06994629 61.91488094 217.06994629 61.91488094 217.06994629 64.14717102 C219.02215088 64.11575012 219.02215088 64.11575012 221.01379395 64.08369446 C225.85547832 64.01113909 230.69711489 63.96531455 235.53918457 63.92744446 C237.63236581 63.90736443 239.72549121 63.88009462 241.81848145 63.84541321 C244.83213098 63.79673668 247.84503702 63.7741659 250.85900879 63.75654602 C251.79048737 63.73590088 252.72196594 63.71525574 253.68167114 63.69398499 C259.3432251 63.69204226 262.58958659 64.34222053 267.06994629 68.14717102 C270.69828292 71.96647274 271.37995087 75.02996108 271.56994629 80.14717102 C271.37995087 85.26438096 270.69828292 88.3278693 267.06994629 92.14717102 C261.7786864 96.61167155 257.32357115 96.79315551 250.69494629 96.89717102 C249.76811035 96.92681946 248.84127441 96.9564679 247.88635254 96.98701477 C245.61413194 97.05728963 243.3429117 97.1101915 241.06994629 97.14717102 C241.50750244 97.71524475 241.94505859 98.28331848 242.39587402 98.86860657 C271.09712462 136.18513595 271.09712462 136.18513595 271.24694824 150.50727844 C271.25978348 151.57906845 271.27261871 152.65085846 271.2858429 153.75512695 C271.29692329 155.4863958 271.29692329 155.4863958 271.30822754 157.25263977 C271.31629929 158.44641739 271.32437103 159.64019501 271.33268738 160.87014771 C271.34651669 163.39777682 271.35724399 165.92542452 271.3651123 168.45307922 C271.38230327 172.30264562 271.42619935 176.15134829 271.47033691 180.00068665 C271.48046623 182.45966472 271.48898158 184.91865008 271.49572754 187.37763977 C271.51323563 188.52169785 271.53074371 189.66575592 271.54878235 190.84448242 C271.52489565 199.72412657 269.73641582 206.87920158 263.56994629 213.52217102 C262.71916504 214.46189758 262.71916504 214.46189758 261.85119629 215.42060852 C260.06994629 217.14717102 260.06994629 217.14717102 257.98791504 218.37593079 C255.80295053 220.03453233 255.80295053 220.03453233 255.58752441 222.89936829 C255.59429199 224.53990173 255.59429199 224.53990173 255.60119629 226.21357727 C255.5870166 227.42207336 255.57283691 228.63056946 255.55822754 229.87568665 C255.56595646 232.40433274 255.57376714 234.93297858 255.58166504 237.46162415 C255.46353394 247.60478954 253.8723067 256.01471946 246.77307129 263.61592102 C238.81447703 270.77135439 230.77938116 272.45957251 220.33557129 272.48310852 C219.30236755 272.48976532 218.26916382 272.49642212 217.20465088 272.50328064 C215.02272312 272.51338311 212.8407646 272.51809841 210.65881348 272.51777649 C207.34480985 272.5221383 204.03215111 272.55845339 200.71838379 272.59638977 C198.59078414 272.60226092 196.46317821 272.60622832 194.33557129 272.60810852 C192.86631195 272.62966507 192.86631195 272.62966507 191.36737061 272.6516571 C182.28375864 272.59225087 174.33243158 270.13701578 167.60119629 263.85029602 C156.90988832 251.95894328 159.06994629 240.95589126 159.06994629 224.14717102 C106.26994629 224.14717102 53.46994629 224.14717102 -0.93005371 224.14717102 C-0.93005371 232.06717102 -0.93005371 239.98717102 -0.93005371 248.14717102 C-5.20350928 258.83080994 -8.75501618 265.15317282 -18.93005371 270.14717102 C-24.49794622 272.50872162 -29.71849983 272.46970887 -35.66442871 272.48310852 C-36.69763245 272.48976532 -37.73083618 272.49642212 -38.79534912 272.50328064 C-40.97727688 272.51338311 -43.1592354 272.51809841 -45.34118652 272.51777649 C-48.65519015 272.5221383 -51.96784889 272.55845339 -55.28161621 272.59638977 C-57.40921586 272.60226092 -59.53682179 272.60622832 -61.66442871 272.60810852 C-63.13368805 272.62966507 -63.13368805 272.62966507 -64.63262939 272.6516571 C-73.71624136 272.59225087 -81.66756842 270.13701578 -88.39880371 263.85029602 C-94.20691331 257.39025575 -97.21822877 250.42435994 -97.06286621 241.68232727 C-97.0667334 239.86378235 -97.0667334 239.86378235 -97.07067871 238.00849915 C-97.06027727 235.47964809 -97.02648689 232.95078325 -96.96911621 230.42256165 C-96.87470204 223.7060208 -96.87470204 223.7060208 -99.66784668 217.83442688 C-101.74255997 215.97657516 -101.74255997 215.97657516 -103.93005371 214.53193665 C-108.91230529 211.08231128 -111.42578605 205.87097846 -112.93005371 200.14717102 C-113.24852484 196.08307301 -113.25799626 192.02700622 -113.26599121 187.95185852 C-113.27264801 186.76802582 -113.27930481 185.58419312 -113.28616333 184.36448669 C-113.29627427 181.86139983 -113.30098083 179.3582861 -113.30065918 176.85517883 C-113.30501468 173.05621436 -113.34130461 169.2584288 -113.37927246 165.45967102 C-113.38514469 163.01957079 -113.38911136 160.57946509 -113.39099121 158.13935852 C-113.41254776 156.45590836 -113.41254776 156.45590836 -113.43453979 154.7384491 C-113.32548827 135.58268255 -102.59077063 122.73347323 -91.23474121 108.38154602 C-88.34445867 104.71574047 -85.60961833 100.96934244 -82.93005371 97.14717102 C-83.50449219 97.13782532 -84.07893066 97.12847961 -84.67077637 97.11885071 C-87.29970675 97.06482071 -89.92691938 96.98124208 -92.55505371 96.89717102 C-93.45868652 96.88299133 -94.36231934 96.86881165 -95.29333496 96.85420227 C-102.39463414 96.59503077 -106.31607446 94.89872813 -111.30505371 89.64717102 C-113.70308946 84.48217093 -113.68386906 79.74694222 -112.93005371 74.14717102 C-110.62589977 69.18437792 -107.71735109 66.70995258 -102.93005371 64.14717102 C-99.51686486 63.61607104 -96.16630438 63.6801431 -92.71911621 63.75654602 C-91.26691177 63.76503571 -91.26691177 63.76503571 -89.78536987 63.7736969 C-86.70808442 63.7959999 -83.63198432 63.84618546 -80.55505371 63.89717102 C-78.46262267 63.91724385 -76.37017329 63.93549325 -74.27770996 63.95185852 C-69.16137124 63.99584489 -64.04591311 64.06483083 -58.93005371 64.14717102 C-58.67949219 63.32442688 -58.42893066 62.50168274 -58.17077637 61.65400696 C-56.74328623 57.61928278 -54.97224838 53.87023379 -53.07849121 50.03779602 C-52.70076569 49.27094482 -52.32304016 48.50409363 -51.93386841 47.71400452 C-51.13422322 46.09588881 -50.33228697 44.47890352 -49.52819824 42.86299133 C-48.31846163 40.42420096 -47.12610609 37.97740971 -45.93395996 35.52998352 C-38.24068602 19.9285553 -30.0287182 8.19390202 -13.15661621 1.87373352 C-8.63800666 0.39923988 -4.79094906 0.01639084 0 0 Z M-9.13928223 38.17182922 C-12.57041833 42.68188053 -15.07061544 47.69216477 -17.58239746 52.75263977 C-18.08678848 53.75426651 -18.5911795 54.75589325 -19.1108551 55.78787231 C-20.16697626 57.89237067 -21.2180431 59.99941236 -22.26428223 62.10884094 C-23.87165931 65.3429316 -25.50230322 68.56454136 -27.13513184 71.7858429 C-28.16063872 73.83656653 -29.18477624 75.88797564 -30.20739746 77.94013977 C-30.69683334 78.9037291 -31.18626923 79.86731842 -31.6905365 80.86010742 C-32.35231651 82.20719536 -32.35231651 82.20719536 -33.02746582 83.58149719 C-33.61653969 84.76228096 -33.61653969 84.76228096 -34.21751404 85.96691895 C-35.05283277 88.5228544 -34.99652578 89.69252582 -33.93005371 92.14717102 C-27.66665689 95.99061907 -21.82965388 96.29566624 -14.64471436 96.28761292 C-13.81374764 96.29058404 -12.98278093 96.29355516 -12.12663341 96.29661632 C-9.34397421 96.30528344 -6.56135814 96.30680988 -3.77868652 96.30830383 C-1.78272408 96.3129334 0.21323747 96.31795825 2.209198 96.323349 C7.63082058 96.33646139 13.05243078 96.34291567 18.47406673 96.34735966 C21.86238458 96.35029218 25.25069905 96.35439733 28.6390152 96.35886383 C39.24351891 96.37253554 49.8480149 96.38220387 60.45252681 96.38606572 C72.68792503 96.39054617 84.92321152 96.40809491 97.15857577 96.43706632 C106.62031239 96.45869147 116.08201759 96.46877045 125.54377866 96.47010684 C131.19297409 96.47115424 136.84206444 96.47704839 142.49123383 96.49492645 C147.80672822 96.51142153 153.1220387 96.51355559 158.43754959 96.50478745 C160.38497282 96.50401785 162.33240599 96.5083495 164.27980423 96.5182457 C166.94564436 96.53099493 169.61083602 96.52507235 172.27667236 96.5146637 C173.42286328 96.5267483 173.42286328 96.5267483 174.59220958 96.53907704 C181.36888241 96.47751897 187.40162205 94.92605385 193.06994629 91.14717102 C192.47768561 87.59485977 191.53606542 84.6835129 189.95617676 81.45210266 C189.29946487 80.10028648 189.29946487 80.10028648 188.62948608 78.72116089 C188.15350983 77.75959579 187.67753357 76.7980307 187.18713379 75.80732727 C186.69464142 74.80761398 186.20214905 73.8079007 185.69473267 72.77789307 C184.65059967 70.66569778 183.60306047 68.55518337 182.55236816 66.44624329 C180.95625236 63.23243599 179.38397908 60.00766868 177.81213379 56.78193665 C176.79275385 54.72717851 175.77196561 52.67311832 174.74963379 50.61982727 C174.28580292 49.66028641 173.82197205 48.70074554 173.34408569 47.71212769 C170.53024614 42.14038289 167.63090603 37.29204858 162.06994629 34.14717102 C157.42850099 32.6248736 153.39493517 31.89555299 148.51821899 31.88647461 C147.24265137 31.8793898 145.96708374 31.87230499 144.65286255 31.86500549 C143.25689661 31.86729885 141.86093102 31.86980849 140.46496582 31.87251282 C138.98101547 31.86816112 137.49706736 31.86297645 136.01312256 31.85702515 C131.99650648 31.84367258 127.97998471 31.84305233 123.96335077 31.84558845 C120.60367642 31.84666078 117.24402095 31.84176805 113.88435066 31.83698303 C105.95450219 31.82590061 98.02470109 31.82544319 90.09484863 31.83149719 C81.92927918 31.83753555 73.76388211 31.8252266 65.59834206 31.80392712 C58.57390344 31.78628163 51.54951954 31.78031444 44.52505958 31.78356487 C40.33577209 31.78537329 36.14660755 31.78278577 31.95734024 31.76885033 C28.01576337 31.75622863 24.07445416 31.75825683 20.13288116 31.77126122 C18.69180331 31.77361719 17.25070636 31.77092762 15.80965042 31.76263809 C2.15637945 31.48600669 2.15637945 31.48600669 -9.13928223 38.17182922 Z M-67.62145996 153.22138977 C-72.02772009 160.01280495 -72.63280789 166.14188432 -71.93005371 174.14717102 C-70.1742895 180.78999867 -65.47442678 185.3270257 -59.93005371 189.14717102 C-53.93118368 192.08779359 -47.04721841 192.2460089 -40.61755371 190.52998352 C-34.48872511 187.82468027 -29.6905258 182.73853407 -26.75817871 176.75654602 C-24.85199514 170.7502695 -24.86566684 163.64425544 -27.43005371 157.83467102 C-30.91523729 151.89373531 -36.36448401 147.23178811 -42.93005371 145.14717102 C-52.71635685 143.81325814 -61.14567779 145.27995714 -67.62145996 153.22138977 Z M188.37854004 153.22138977 C183.97227991 160.01280495 183.36719211 166.14188432 184.06994629 174.14717102 C185.8257105 180.78999867 190.52557322 185.3270257 196.06994629 189.14717102 C202.06881632 192.08779359 208.95278159 192.2460089 215.38244629 190.52998352 C221.51127489 187.82468027 226.3094742 182.73853407 229.24182129 176.75654602 C231.14800486 170.7502695 231.13433316 163.64425544 228.56994629 157.83467102 C225.08476271 151.89373531 219.63551599 147.23178811 213.06994629 145.14717102 C203.28364315 143.81325814 194.85432221 145.27995714 188.37854004 153.22138977 Z " fill="#000000" transform="translate(176.9300537109375,207.8528289794922)"/>
<path d="M0 0 C12.29166667 10.52083333 12.29166667 10.52083333 14.5625 15.0625 C15.42241924 15.06396656 16.28233849 15.06543312 17.16831589 15.06694412 C38.12742297 15.10405484 59.0863689 15.16312608 80.04534531 15.24640274 C90.18111168 15.28615014 100.3168009 15.31856445 110.45263672 15.33349609 C119.29080265 15.34653491 128.12879851 15.3735564 136.96686864 15.41711307 C141.64317192 15.43967778 146.31926581 15.45541368 150.99562836 15.45438385 C155.4050674 15.45363428 159.81404446 15.47170349 164.22336388 15.50366783 C165.83408435 15.51212552 167.44485688 15.51394511 169.05558968 15.50830269 C184.33945303 15.46193072 197.06225528 18.66615696 208.78125 29.0234375 C219.87355045 40.4997022 223.07118943 53.54351349 222.8359375 68.9921875 C222.35196313 81.98282634 215.86349314 92.63397738 206.5703125 101.46875 C194.73626325 110.86231439 182.61444795 112.50180126 168.04638672 112.36791992 C166.38156413 112.36383403 164.71673748 112.3611874 163.0519104 112.35986328 C159.48172191 112.35466736 155.91171296 112.34075169 152.34157944 112.320364 C146.69326161 112.28956993 141.04514745 112.28704418 135.39675903 112.28987122 C119.3403768 112.29418084 103.28424748 112.27066347 87.22802734 112.1965332 C78.3487972 112.15577901 69.46999693 112.14356346 60.59068882 112.16277009 C54.97801054 112.17332122 49.36693417 112.14881744 43.75448966 112.09839761 C40.26204529 112.07548195 36.77029594 112.08606338 33.27785873 112.10611725 C31.66174563 112.10874072 30.04554241 112.09771605 28.42963409 112.07185555 C19.82164427 111.69510927 19.82164427 111.69510927 12.09114456 114.82042885 C10.32699473 116.81835372 8.94536628 118.79147171 7.5625 121.0625 C-5.65925623 134.78360006 -23.76203712 143.65262292 -42.9296875 144.30078125 C-68.66935455 144.75107903 -88.89708534 138.55637607 -107.96875 120.69140625 C-114.17708057 114.21730811 -121.54708809 105.01853259 -122.90234375 95.953125 C-122.28395151 92.10766065 -121.30790569 90.71368813 -118.4375 88.0625 C-115.33211166 87.32426398 -112.28521304 87.38873629 -109.10546875 87.42578125 C-107.74051018 87.41021431 -107.74051018 87.41021431 -106.34797668 87.39433289 C-103.4399345 87.36464103 -100.53316631 87.36802252 -97.625 87.375 C-94.7279036 87.36608289 -91.831148 87.35001191 -88.93415833 87.3235321 C-87.1333432 87.30872109 -85.33239561 87.30475163 -83.53153992 87.31330872 C-77.35614906 87.28546134 -71.91222558 86.99399313 -66.875 83.0625 C-61.67243089 76.65933802 -57.29870951 70.52872001 -57.4375 62.0625 C-58.28493324 59.37065324 -59.08525462 57.47408562 -60.4375 55.0625 C-60.88738281 54.21945313 -61.33726562 53.37640625 -61.80078125 52.5078125 C-64.4991879 47.69669986 -66.3390666 44.52801108 -71.4375 42.0625 C-76.2270743 40.74139413 -81.04537877 40.92762435 -85.97265625 40.921875 C-87.85222578 40.90355962 -89.73178344 40.8839905 -91.61132812 40.86328125 C-94.56311333 40.83423842 -97.51412667 40.81249767 -100.46606445 40.81201172 C-103.32311866 40.80868376 -106.17840799 40.77419338 -109.03515625 40.734375 C-109.91752457 40.7414447 -110.79989288 40.7485144 -111.70899963 40.75579834 C-117.81547449 40.63421114 -117.81547449 40.63421114 -121 37.70727539 C-122.75597997 34.47654662 -122.92276529 32.69492274 -122.4375 29.0625 C-115.93705741 12.05938153 -100.48529095 -1.47490287 -84.52734375 -9.37890625 C-81.53119122 -10.70131876 -78.52879894 -11.85693071 -75.4375 -12.9375 C-74.52355469 -13.25847656 -73.60960937 -13.57945313 -72.66796875 -13.91015625 C-48.12978822 -20.97268478 -20.09329343 -15.55910357 0 0 Z " fill="#000000" transform="translate(209.4375,47.9375)"/>
</svg>
