<?xml version="1.0" encoding="UTF-8"?>
<svg version="1.1" xmlns="http://www.w3.org/2000/svg" width="512" height="512">
<path d="M0 0 C2.1082093 3.36560556 1.68149913 6.98889368 1.09375 10.74609375 C-1.71747783 19.76978801 -5.27297182 27.16576261 -13.78704834 31.88104248 C-17.8678949 33.54683086 -22.11767386 33.5458942 -26.4765625 33.72265625 C-27.47581757 33.77884125 -28.47507263 33.83502625 -29.50460815 33.89291382 C-32.67952367 34.06921704 -35.85496379 34.22170083 -39.03125 34.37109375 C-42.21435724 34.53089892 -45.396994 34.69592146 -48.57931519 34.87069702 C-50.55434745 34.97817078 -52.52990036 35.07656463 -54.50588989 35.16470337 C-60.94832646 35.44636202 -60.94832646 35.44636202 -66.90625 37.74609375 C-68.25547228 39.98763253 -68.25547228 39.98763253 -67.90625 42.74609375 C-65.34836782 46.71522127 -62.3161409 49.26013453 -58.59375 52.12109375 C-44.14097942 63.45829702 -27.08357043 78.94578176 -24.58984375 98.1875 C-24.43461863 99.72250399 -24.30592739 101.26063974 -24.21484375 102.80078125 C-23.99419281 105.06645808 -23.99419281 105.06645808 -21.90625 107.74609375 C-18.9250407 108.93857747 -16.92838602 108.71749461 -13.90625 107.74609375 C-11.02445106 95.06617842 -16.38468717 83.39757452 -22.90625 72.74609375 C-24.23229635 71.07362353 -25.56339181 69.40509569 -26.90625 67.74609375 C-26.90625 67.08609375 -26.90625 66.42609375 -26.90625 65.74609375 C20.94375 65.74609375 68.79375 65.74609375 118.09375 65.74609375 C118.09375 97.16263311 117.70738401 117.20973294 98.09375 140.74609375 C97.76375 155.59609375 97.43375 170.44609375 97.09375 185.74609375 C52.87375 185.74609375 8.65375 185.74609375 -36.90625 185.74609375 C-37.23625 173.86609375 -37.56625 161.98609375 -37.90625 149.74609375 C-43.22978487 142.80030681 -43.22978487 142.80030681 -48.9140625 136.2890625 C-49.92919922 135.20915039 -49.92919922 135.20915039 -50.96484375 134.10742188 C-51.64675781 133.39005859 -52.32867187 132.67269531 -53.03125 131.93359375 C-53.72089844 131.19689453 -54.41054687 130.46019531 -55.12109375 129.70117188 C-58.54400292 126.07864754 -61.96252837 122.80803255 -65.90625 119.74609375 C-67.0669386 118.52916032 -68.19425407 117.27927918 -69.28125 115.99609375 C-71.02854521 113.93556851 -72.76328317 111.89586852 -74.62890625 109.94140625 C-78.49347728 105.8391509 -81.42285483 101.48700832 -84.21875 96.62109375 C-84.55640381 96.03505371 -84.89405762 95.44901367 -85.24194336 94.84521484 C-89.65851756 86.91929089 -91.01976892 79.29463727 -91.05151367 70.27929688 C-91.05789352 69.04111206 -91.06427338 67.80292725 -91.07084656 66.52722168 C-91.07195938 65.20726196 -91.0730722 63.88730225 -91.07421875 62.52734375 C-91.07743739 61.14164191 -91.08080191 59.75594041 -91.08430481 58.37023926 C-91.0902694 55.47549654 -91.09214736 52.58078358 -91.09155273 49.68603516 C-91.091451 45.99090048 -91.10512632 42.29595747 -91.12232494 38.60086823 C-91.13348113 35.74228043 -91.13547087 32.88373856 -91.13494301 30.02513123 C-91.13668409 28.00506159 -91.14749647 25.98500628 -91.15849304 23.96496582 C-91.12254937 9.49949074 -91.12254937 9.49949074 -87.50390625 5.00390625 C-83.39796787 1.97407895 -80.59581846 0.61041779 -75.52441406 0.66430664 C-74.63788147 0.67083755 -73.75134888 0.67736847 -72.83795166 0.68409729 C-71.39449371 0.70125038 -71.39449371 0.70125038 -69.921875 0.71875 C-67.84896022 0.73143171 -65.77604344 0.74378988 -63.703125 0.75585938 C-60.46347666 0.78030681 -57.22393595 0.80788001 -53.984375 0.84204102 C-40.46067163 0.97555395 -27.19242234 0.55136074 -13.73339844 -0.81860352 C-2.85336601 -1.87690674 -2.85336601 -1.87690674 0 0 Z " fill="#000000" transform="translate(239.90625,141.25390625)"/>
<path d="M0 0 C62.7 0 125.4 0 190 0 C190 34.98 190 69.96 190 106 C127.3 106 64.6 106 0 106 C0 71.02 0 36.04 0 0 Z " fill="#000000" transform="translate(175,340)"/>
<path d="M0 0 C0.8765625 0.00563965 1.753125 0.0112793 2.65625 0.01708984 C19.21925434 0.32596419 33.32644323 6.71818364 45.1875 18.3125 C56.33517863 31.00316992 63.19883658 46.48096271 62.4609375 63.6796875 C60.56560281 81.92905292 53.93770802 96.99382048 40.1875 109.3125 C25.7934517 120.48954037 8.88712622 125.06534799 -9.12109375 122.91796875 C-25.22024026 120.08554229 -39.27637189 112.00518373 -49.51076603 99.18518639 C-52.7452533 96.55361368 -54.95491045 96.82099317 -59.09336853 96.83389282 C-59.82829783 96.83062497 -60.56322712 96.82735711 -61.320427 96.82399023 C-63.78424021 96.817738 -66.24698159 96.83991773 -68.71069336 96.86181641 C-70.47654705 96.86290475 -72.24240269 96.86215258 -74.008255 96.85969543 C-77.81157135 96.8579058 -81.61459392 96.86828022 -85.41786003 96.88777542 C-91.43071476 96.91762835 -97.44328445 96.915094 -103.45619202 96.90707397 C-118.3912286 96.89196524 -133.32618492 96.91375162 -148.26116943 96.95489502 C-159.86714498 96.98681469 -171.47279228 97.00611966 -183.07880694 96.98338258 C-189.05722951 96.97311384 -195.03473921 96.99051059 -201.01304042 97.02852273 C-204.73143712 97.04603895 -208.44947776 97.03868883 -212.16787529 97.02437401 C-213.89284993 97.0227912 -215.61786929 97.03151508 -217.34273148 97.05127525 C-219.6976844 97.07681131 -222.0497101 97.06549969 -224.40464783 97.04507446 C-226.38101431 97.050102 -226.38101431 97.050102 -228.3973074 97.05523109 C-233.08903603 96.03488081 -234.13582885 94.1943968 -236.8125 90.3125 C-235.85472656 90.24256836 -234.89695313 90.17263672 -233.91015625 90.10058594 C-230.32294428 89.83416261 -226.73779448 89.54552518 -223.15283203 89.25048828 C-221.60740179 89.12635086 -220.06148863 89.00806963 -218.51513672 88.89599609 C-208.53263731 88.43614045 -208.53263731 88.43614045 -199.2421875 85.203125 C-195.09844547 82.91887541 -192.61298364 83.01623173 -187.9375 83.3125 C-178.93277724 83.62369186 -172.61741865 81.87646753 -165.6875 76.0625 C-164.73875 75.155 -163.79 74.2475 -162.8125 73.3125 C-158.98475513 75.1137917 -155.67294134 77.43939658 -152.2265625 79.875 C-145.44280665 83.91451805 -138.50317962 84.05198843 -130.8125 83.3125 C-124.2392499 81.54894509 -119.01662477 77.56655294 -113.8125 73.3125 C-112.86375 74.22 -111.915 75.1275 -110.9375 76.0625 C-103.71483199 82.1584318 -96.30091281 84.03266232 -86.921875 83.69140625 C-78.73023891 82.69317924 -72.25533968 78.42030199 -66.8125 72.3125 C-62.9624548 66.25924974 -61.65966672 60.70950548 -61.49609375 53.58203125 C-61.4649221 52.45640022 -61.4649221 52.45640022 -61.43312073 51.30802917 C-61.36780074 48.91377816 -61.30882208 46.51941861 -61.25 44.125 C-61.20679807 42.50063987 -61.16318324 40.87629067 -61.11914062 39.25195312 C-61.01213737 35.27224629 -60.91082063 31.29243042 -60.8125 27.3125 C-60.16603516 27.24063477 -59.51957031 27.16876953 -58.85351562 27.09472656 C-52.03419284 26.08118007 -48.74942488 24.23196319 -44.3125 19.0625 C-39.28746949 13.64391621 -34.51913679 9.58156417 -27.8125 6.3125 C-27.05324219 5.92707031 -26.29398438 5.54164062 -25.51171875 5.14453125 C-17.25228691 1.19312776 -9.10654921 -0.06176923 0 0 Z M-21.8125 23.3125 C-23.64230533 25.79379893 -23.64230533 25.79379893 -25.2734375 28.80859375 C-25.91023438 29.92556641 -26.54703125 31.04253906 -27.203125 32.19335938 C-27.86476805 33.37880317 -28.52622557 34.56435054 -29.1875 35.75 C-29.83460938 36.88888672 -30.48171875 38.02777344 -31.1484375 39.20117188 C-32.4327833 41.46819758 -33.70733586 43.74080146 -34.97167969 46.01904297 C-36.17575461 48.17328312 -37.4047549 50.3138269 -38.66113281 52.43798828 C-39.21897461 53.39817871 -39.77681641 54.35836914 -40.3515625 55.34765625 C-40.85123535 56.18820557 -41.3509082 57.02875488 -41.86572266 57.89477539 C-43.05507266 60.93194224 -42.83838965 62.23424298 -41.8125 65.3125 C-40.82548919 67.30137428 -39.76083707 69.25258539 -38.64453125 71.171875 C-37.99806641 72.28820312 -37.35160156 73.40453125 -36.68554688 74.5546875 C-36.34644287 75.13186523 -36.00733887 75.70904297 -35.65795898 76.30371094 C-34.63870326 78.03916787 -33.63079027 79.78127039 -32.62304688 81.5234375 C-27.16414739 92.77167066 -27.16414739 92.77167066 -18.8125 101.3125 C-17.45091986 101.43140854 -16.08398101 101.4920952 -14.7175293 101.52124023 C-13.87292648 101.54053085 -13.02832367 101.55982147 -12.15812683 101.57969666 C-8.29369354 101.63742049 -4.42944657 101.68671092 -0.56469727 101.7175293 C1.4732354 101.73912135 3.51107503 101.77323845 5.54858398 101.82006836 C8.48723748 101.88700211 11.42397346 101.91451621 14.36328125 101.93359375 C15.72601921 101.97533974 15.72601921 101.97533974 17.11628723 102.01792908 C21.77483983 102.00279526 23.53365246 101.9148343 27.07250977 98.65478516 C27.77045654 97.55183105 28.46840332 96.44887695 29.1875 95.3125 C29.81350098 94.32628662 30.43950195 93.34007324 31.08447266 92.32397461 C31.6676123 91.29796143 32.25075195 90.27194824 32.8515625 89.21484375 C33.49867188 88.08369141 34.14578125 86.95253906 34.8125 85.78710938 C35.47935595 84.60817997 36.14602106 83.42914258 36.8125 82.25 C37.48642413 81.066741 38.1608993 79.88379567 38.8359375 78.70117188 C40.07659909 76.52629211 41.31469338 74.34994424 42.54931641 72.17163086 C43.62150408 70.30033579 44.73592657 68.45246742 45.89550781 66.6340332 C47.36068243 64.00131487 47.48638907 62.3429273 46.89550781 59.39648438 C45.27921082 54.63899777 42.5945968 50.37831833 40.0625 46.0625 C39.505625 45.08925781 38.94875 44.11601562 38.375 43.11328125 C35.48136014 38.09274941 32.49886248 33.12799836 29.4453125 28.203125 C28.89246582 27.31141602 28.33961914 26.41970703 27.77001953 25.50097656 C26.20989856 23.07522887 26.20989856 23.07522887 23.1875 21.3125 C21.25981462 21.0115236 21.25981462 21.0115236 19.14672852 21.05371094 C18.33901505 21.04740662 17.53130157 21.04110229 16.69911194 21.03460693 C15.83031906 21.0386554 14.96152618 21.04270386 14.06640625 21.046875 C12.72194679 21.04400482 12.72194679 21.04400482 11.35032654 21.04107666 C9.45482096 21.03971577 7.55930603 21.04340552 5.66381836 21.05175781 C2.76459757 21.06244618 -0.1340018 21.05186577 -3.03320312 21.0390625 C-4.87500137 21.04038436 -6.71679922 21.04294729 -8.55859375 21.046875 C-9.4253624 21.04282654 -10.29213104 21.03877808 -11.18516541 21.03460693 C-11.99603104 21.04091125 -12.80689667 21.04721558 -13.64233398 21.05371094 C-14.35276352 21.05530212 -15.06319305 21.05689331 -15.79515076 21.05853271 C-18.18868695 21.35985877 -19.76195026 22.05158318 -21.8125 23.3125 Z " fill="#000000" transform="translate(430.8125,97.6875)"/>
<path d="M0 0 C6.88619937 5.26718698 11.80206396 11.41966177 16.6328125 18.5859375 C18.91150269 21.42951307 20.85936782 22.67885341 24.49176025 23.1847229 C25.19347351 23.19804657 25.89518677 23.21137024 26.61816406 23.22509766 C27.41869202 23.24496735 28.21921997 23.26483704 29.04400635 23.28530884 C29.89831238 23.29686005 30.75261841 23.30841125 31.6328125 23.3203125 C32.51499451 23.33967865 33.39717651 23.3590448 34.30609131 23.3789978 C37.11802566 23.43867848 39.9300012 23.48513283 42.7421875 23.53125 C44.65105931 23.56944038 46.55991409 23.60849273 48.46875 23.6484375 C53.14309046 23.74437058 57.81751159 23.82844416 62.4921875 23.90625 C62.4921875 25.55625 62.4921875 27.20625 62.4921875 28.90625 C61.74195313 28.92042969 60.99171875 28.93460938 60.21875 28.94921875 C51.06286014 29.3758786 43.47048088 31.33004801 37.0546875 38.21875 C31.67810675 44.59039943 31.03700452 52.13721982 30.98046875 60.09375 C30.95354195 61.50841553 30.95354195 61.50841553 30.92607117 62.95166016 C30.87229106 65.93647921 30.83817661 68.92114135 30.8046875 71.90625 C30.77148589 73.94142793 30.73699363 75.97658525 30.70117188 78.01171875 C30.61658334 82.97644868 30.54961886 87.94113468 30.4921875 92.90625 C29.35330078 92.96232422 29.35330078 92.96232422 28.19140625 93.01953125 C27.19753906 93.08527344 26.20367187 93.15101563 25.1796875 93.21875 C24.19355469 93.27675781 23.20742187 93.33476562 22.19140625 93.39453125 C17.26662141 94.32817353 15.57243937 98.14719944 12.8671875 102.09375 C3.74786381 114.63282008 -8.89408966 122.73689961 -24.32421875 125.390625 C-44.97854383 127.3884829 -63.59150696 119.98921269 -79.5703125 107.21875 C-82.6886067 104.64077697 -85.1362716 102.16909112 -87.5078125 98.90625 C-86.89251175 98.90704559 -86.277211 98.90784119 -85.64326477 98.90866089 C-79.23505507 98.91109993 -72.82805645 98.87190327 -66.42016602 98.80859375 C-64.02927274 98.79043301 -61.63827446 98.78286536 -59.24731445 98.78613281 C-55.80858096 98.7889895 -52.37202566 98.75367552 -48.93359375 98.7109375 C-47.86571121 98.72003143 -46.79782867 98.72912537 -45.69758606 98.73849487 C-40.43884608 98.76265498 -40.43884608 98.76265498 -35.78959656 96.6678009 C-34.2389676 94.93506201 -34.2389676 94.93506201 -32.5078125 91.90625 C-31.99887451 91.17398193 -31.48993652 90.44171387 -30.96557617 89.68725586 C-30.53994385 89.00542236 -30.11431152 88.32358887 -29.67578125 87.62109375 C-29.19069092 86.84926758 -28.70560059 86.07744141 -28.20581055 85.28222656 C-27.70734619 84.4775293 -27.20888184 83.67283203 -26.6953125 82.84375 C-25.64329728 81.14969728 -24.59121368 79.45568703 -23.5390625 77.76171875 C-23.02730469 76.93591309 -22.51554687 76.11010742 -21.98828125 75.25927734 C-20.66376569 73.15411887 -19.30336195 71.08224897 -17.9140625 69.01953125 C-17.53483643 68.44404541 -17.15561035 67.86855957 -16.76489258 67.27563477 C-15.76709258 65.76492777 -14.7532828 64.26482889 -13.73828125 62.765625 C-12.07943032 58.9107714 -12.39275856 56.94127009 -13.5078125 52.90625 C-14.91599831 50.12393278 -16.61280532 47.59492695 -18.3828125 45.03125 C-19.38080139 43.54336637 -20.37817841 42.05507218 -21.375 40.56640625 C-22.1479541 39.42389404 -22.1479541 39.42389404 -22.93652344 38.25830078 C-24.51889035 35.88966765 -26.05487165 33.49685762 -27.578125 31.08984375 C-28.06941895 30.31560059 -28.56071289 29.54135742 -29.06689453 28.74365234 C-30.01132192 27.25260279 -30.95252432 25.75950455 -31.89013672 24.26416016 C-32.53619873 23.25361572 -32.53619873 23.25361572 -33.1953125 22.22265625 C-33.57042969 21.62912354 -33.94554687 21.03559082 -34.33203125 20.42407227 C-36.09251018 18.15146065 -37.7978646 16.99841561 -40.65287781 16.6277771 C-41.48116592 16.61445343 -42.30945404 16.60112976 -43.1628418 16.58740234 C-44.10359055 16.56753265 -45.04433929 16.54766296 -46.01359558 16.52719116 C-47.53247124 16.50986435 -47.53247124 16.50986435 -49.08203125 16.4921875 C-50.12100052 16.47282135 -51.15996979 16.4534552 -52.23042297 16.4335022 C-55.55196906 16.37367701 -58.87354974 16.32730896 -62.1953125 16.28125 C-64.44597874 16.24307295 -66.69663032 16.20402139 -68.94726562 16.1640625 C-74.46731794 16.06797311 -79.98745836 15.98293419 -85.5078125 15.90625 C-84.58088397 14.78752929 -83.64848606 13.67333911 -82.71386719 12.56103516 C-81.93592804 11.6296019 -81.93592804 11.6296019 -81.14227295 10.67935181 C-78.67111375 7.99857918 -75.85835404 6.16056224 -72.7578125 4.28125 C-72.14220459 3.90009033 -71.52659668 3.51893066 -70.89233398 3.1262207 C-69.10775807 2.03444456 -67.31167788 0.96577916 -65.5078125 -0.09375 C-64.64800781 -0.60292969 -63.78820312 -1.11210938 -62.90234375 -1.63671875 C-43.15530597 -12.3867812 -18.75794836 -12.8315241 0 0 Z " fill="#000000" transform="translate(106.5078125,101.09375)"/>
<path d="M0 0 C4.59369836 2.71871944 7.4661582 5.57946269 9.16081238 10.75445557 C9.78198485 13.97327194 9.75797136 17.08438022 9.7824707 20.36230469 C9.7923275 21.45581238 9.7923275 21.45581238 9.80238342 22.57141113 C9.82205691 24.97859817 9.8337661 27.38572296 9.84375 29.79296875 C9.84782553 30.61778999 9.85190105 31.44261124 9.85610008 32.29242706 C9.87693614 36.65881599 9.89124812 41.02517373 9.90063477 45.39160156 C9.9116901 49.8883857 9.94608671 54.38467378 9.98580647 58.88128281 C10.01202167 62.35069666 10.02033096 65.8199932 10.02391624 69.28949738 C10.02877005 70.94640704 10.04034952 72.60331189 10.05895424 74.26012421 C10.16279062 84.12044729 10.01064635 91.28629207 3.79296875 99.43359375 C-1.40252279 103.29310175 -6.85259642 103.42038389 -13.03125 102.5859375 C-18.09356432 101.45633017 -20.59845818 99.19387348 -23.52539062 95.01977539 C-26.84963519 88.06098555 -25.96692595 79.7853171 -25.92578125 72.2421875 C-25.92847941 70.49918909 -25.93236452 68.75619214 -25.93737793 67.01319885 C-25.94325621 63.37103865 -25.93476321 59.7292724 -25.91601562 56.0871582 C-25.89320984 51.43111336 -25.90636972 46.77599011 -25.93030548 42.1199789 C-25.94479435 38.52445087 -25.94014367 34.92913956 -25.92979431 31.33360481 C-25.92713643 29.61728873 -25.9303636 27.90095263 -25.93971252 26.18465996 C-25.94993147 23.78200386 -25.93430528 21.38081869 -25.91210938 18.97827148 C-25.9202063 18.27729843 -25.92830322 17.57632538 -25.93664551 16.85411072 C-25.84455975 11.44308576 -24.34815619 8.43593081 -21.39453125 4.05859375 C-15.48068469 -1.42253233 -7.66362576 -3.01294259 0 0 Z " fill="#000000" transform="translate(348.39453125,66.94140625)"/>
<path d="M0 0 C3.09824681 2.79597883 5.68730734 5.56211469 7.5625 9.3125 C7.67628665 11.87410934 7.73031659 14.40917058 7.73950195 16.97167969 C7.74935875 18.15735031 7.74935875 18.15735031 7.75941467 19.36697388 C7.77916519 21.98944184 7.79081496 24.61185245 7.80078125 27.234375 C7.80485678 28.12972206 7.8089323 29.02506912 7.81313133 29.94754791 C7.83400088 34.68768586 7.848298 39.42779478 7.85766602 44.16796875 C7.86872432 49.06182426 7.90311489 53.9552243 7.94283772 58.84891891 C7.9689992 62.61335082 7.9773575 66.37767421 7.98094749 70.14218903 C7.98581572 71.94588543 7.99743645 73.74957692 8.01598549 75.55318451 C8.04036438 78.08106909 8.03941435 80.60777575 8.0324707 83.13574219 C8.05168579 84.24881241 8.05168579 84.24881241 8.07128906 85.3843689 C8.02015845 90.50432643 6.76577446 93.36074386 3.5625 97.3125 C-1.30466253 101.60023842 -6.10435054 102.54742363 -12.4375 102.3125 C-17.05122752 101.47801711 -20.28213355 99.85604128 -23.375 96.3125 C-26.52856662 91.725494 -26.59489145 88.00806593 -26.61450195 82.6315918 C-26.62107315 81.85075226 -26.62764435 81.06991272 -26.63441467 80.26541138 C-26.65412833 77.68084618 -26.66580563 75.09633901 -26.67578125 72.51171875 C-26.67985678 71.62832132 -26.6839323 70.7449239 -26.68813133 69.83475685 C-26.70898333 65.15945291 -26.72328909 60.48417826 -26.73266602 55.80883789 C-26.74373169 50.98338978 -26.77813579 46.15840263 -26.81783772 41.33311749 C-26.84399801 37.61929982 -26.8523573 33.90559214 -26.85594749 30.19169044 C-26.86081458 28.41311338 -26.87243208 26.63454126 -26.89098549 24.85605431 C-26.9153661 22.36419624 -26.91441431 19.87353293 -26.9074707 17.3815918 C-26.92028076 16.65046677 -26.93309082 15.91934174 -26.94628906 15.1660614 C-26.89474031 10.07742597 -25.61029169 7.24384617 -22.4375 3.3125 C-16.05556282 -2.44680917 -7.8533264 -3.85526932 0 0 Z " fill="#000000" transform="translate(302.4375,67.6875)"/>
<path d="M0 0 C1.37569136 0.00094406 2.75162457 0.03451723 4.12597656 0.09521484 C4.85278625 0.10370453 5.57959595 0.11219421 6.32843018 0.12094116 C8.64268278 0.15444634 10.95340861 0.22970302 13.26660156 0.30615234 C14.83816569 0.33625646 16.40978464 0.36363151 17.98144531 0.38818359 C21.8278497 0.45422585 25.67162847 0.55771314 29.51660156 0.68115234 C31.49543281 4.18473797 33.47084181 7.69022814 35.44311523 11.19750977 C36.11437974 12.39009439 36.78657304 13.58215673 37.4597168 14.77368164 C38.42774231 16.48755116 39.39214149 18.20346731 40.35644531 19.91943359 C40.93773193 20.95108643 41.51901855 21.98273926 42.11791992 23.0456543 C43.51660156 25.68115234 43.51660156 25.68115234 44.51660156 28.68115234 C43.26904297 31.39257812 43.26904297 31.39257812 41.36816406 34.62646484 C41.03618011 35.1969455 40.70419617 35.76742615 40.3621521 36.35519409 C39.29809452 38.17791565 38.21991665 39.9918368 37.14160156 41.80615234 C36.42195104 43.03609463 35.7031898 44.26655771 34.98535156 45.49755859 C29.73655658 54.46119733 29.73655658 54.46119733 28.51660156 55.68115234 C26.14091637 55.76954905 23.79451482 55.7964554 21.41894531 55.77880859 C20.35565758 55.77668617 20.35565758 55.77668617 19.27088928 55.77452087 C16.99858444 55.76890677 14.72637681 55.75635197 12.45410156 55.74365234 C10.91699361 55.73863916 9.37988411 55.73407594 7.84277344 55.72998047 C4.06734514 55.71893277 0.29198985 55.70165876 -3.48339844 55.68115234 C-5.65671854 52.08079332 -7.81047921 48.46965819 -9.94702148 44.84741211 C-10.67615162 43.61739987 -11.41049036 42.39045948 -12.15014648 41.16674805 C-13.21396814 39.40468164 -14.25841884 37.63232858 -15.29980469 35.85693359 C-15.93345947 34.79385986 -16.56711426 33.73078613 -17.2199707 32.63549805 C-18.6509475 29.28936275 -18.66898393 28.06486614 -17.48339844 24.68115234 C-16.51538086 22.55639648 -16.51538086 22.55639648 -15.33886719 20.46630859 C-14.90896484 19.69738281 -14.4790625 18.92845703 -14.03613281 18.13623047 C-13.58560547 17.34667969 -13.13507813 16.55712891 -12.67089844 15.74365234 C-12.23197266 14.95796875 -11.79304688 14.17228516 -11.34082031 13.36279297 C-10.0774302 11.11947769 -8.81073781 8.88733136 -7.48339844 6.68115234 C-6.92789307 5.61356689 -6.3723877 4.54598145 -5.80004883 3.44604492 C-3.48339844 0.68115234 -3.48339844 0.68115234 0 0 Z " fill="#000000" transform="translate(420.4833984375,131.31884765625)"/>
<path d="M0 0 C4.12593192 2.87855716 7.06537651 6.00862953 8.6875 10.875 C8.79867097 13.37236455 8.85511241 15.8425891 8.86450195 18.34057617 C8.87435875 19.47775589 8.87435875 19.47775589 8.88441467 20.63790894 C8.90413057 23.14792992 8.91580796 25.65789104 8.92578125 28.16796875 C8.92985678 29.02680475 8.9339323 29.88564075 8.93813133 30.77050209 C8.95898724 35.31843449 8.97328964 39.86633678 8.98266602 44.41430664 C8.99371468 49.10056033 9.02809792 53.78633714 9.06783772 58.4724226 C9.09404868 62.08509676 9.10236193 65.69765821 9.10594749 69.31041908 C9.11080381 71.03710453 9.1223905 72.76378527 9.14098549 74.49037743 C9.16546763 76.91478018 9.16439563 79.33796135 9.1574707 81.76245117 C9.17028076 82.46768417 9.18309082 83.17291718 9.19628906 83.89952087 C9.14065429 89.27870582 7.65757086 93.45926824 4.6875 97.875 C1.15242526 100.80835989 -1.74392773 102.33752091 -6.3125 102.875 C-5.68945602 99.26004693 -4.67819295 96.08666958 -3.3125 92.6875 C-0.82188144 85.89988018 0.91191732 79.50240954 -1.625 72.5 C-2.181875 71.30375 -2.73875 70.1075 -3.3125 68.875 C-3.621875 68.09125 -3.93125 67.3075 -4.25 66.5 C-5.62547969 64.39632518 -7.01164543 63.80972217 -9.3125 62.875 C-9.9725 62.545 -10.6325 62.215 -11.3125 61.875 C-13.68373246 61.64470044 -16.05991943 61.46380058 -18.4375 61.3125 C-19.71882812 61.22871094 -21.00015625 61.14492187 -22.3203125 61.05859375 C-23.80144531 60.96771484 -23.80144531 60.96771484 -25.3125 60.875 C-25.36336217 54.30968548 -25.39830161 47.74442212 -25.42236328 41.17895508 C-25.43239816 38.94716493 -25.44602907 36.71538785 -25.46337891 34.48364258 C-25.48773761 31.26901007 -25.49900847 28.05455197 -25.5078125 24.83984375 C-25.52329636 23.35193581 -25.52329636 23.35193581 -25.53909302 21.83396912 C-25.54016739 15.14536549 -25.47462198 9.44617209 -21 4.125 C-14.30178335 -1.48280929 -8.45820508 -2.87259795 0 0 Z " fill="#000000" transform="translate(253.3125,67.125)"/>
<path d="M0 0 C5.16845877 2.82965899 7.70918284 6.58438927 9.66015625 12.1484375 C10.17883693 16.06588374 10.12818869 19.92129583 10.05078125 23.8671875 C10.04512146 24.96567017 10.03946167 26.06415283 10.03363037 27.19592285 C10.01136378 30.6805507 9.96118377 34.16412406 9.91015625 37.6484375 C9.89007877 40.02081841 9.87183019 42.39321555 9.85546875 44.765625 C9.8115309 50.5602514 9.74471606 56.35426909 9.66015625 62.1484375 C0.48082965 66.7381008 -15.55184155 64.87674159 -25.33984375 63.1484375 C-25.44160799 56.0318631 -25.51146204 48.9154777 -25.55957031 41.79833984 C-25.5796344 39.3793232 -25.60689218 36.96035474 -25.64160156 34.54150391 C-25.69034716 31.05619382 -25.71286539 27.57152734 -25.73046875 24.0859375 C-25.75111389 23.01166504 -25.77175903 21.93739258 -25.79302979 20.83056641 C-25.79521319 13.45588246 -24.81595208 7.8645444 -19.5859375 2.2734375 C-13.38558254 -1.58337077 -6.96887961 -2.53625335 0 0 Z " fill="#000000" transform="translate(206.33984375,66.8515625)"/>
</svg>
