<?xml version="1.0" encoding="UTF-8"?>
<svg version="1.1" xmlns="http://www.w3.org/2000/svg" width="512" height="512">
<path d="M0 0 C1.14816193 -0.00101212 1.14816193 -0.00101212 2.31951904 -0.00204468 C13.36982033 0.01346523 23.89974562 0.33338153 34.625 3.25 C35.2957959 3.43224121 35.9665918 3.61448242 36.65771484 3.80224609 C62.96876523 11.11121043 85.30726228 24.09896031 104.625 43.25 C105.48738281 44.09949219 106.34976563 44.94898438 107.23828125 45.82421875 C135.86556736 75.63860125 145.57298874 114.64062124 144.86199951 154.88519287 C144.61778041 164.28698356 143.12811638 173.19443679 140.625 182.25 C140.32746826 183.37535156 140.32746826 183.37535156 140.02392578 184.5234375 C133.35513979 209.05523258 119.36913727 230.35141092 101.625 248.25 C100.77550781 249.11238281 99.92601562 249.97476563 99.05078125 250.86328125 C69.23639875 279.49056736 30.23437876 289.19798874 -10.01019287 288.48699951 C-19.41198356 288.24278041 -28.31943679 286.75311638 -37.375 284.25 C-38.12523437 284.05164551 -38.87546875 283.85329102 -39.6484375 283.64892578 C-63.7970299 277.08431059 -84.52326623 263.43162364 -102.375 246.25 C-103.00664062 245.68152344 -103.63828125 245.11304688 -104.2890625 244.52734375 C-126.88597981 223.59038956 -142.19353935 187.98323233 -143.53613281 157.60400391 C-143.58208621 153.3607956 -143.62165927 149.11846164 -143.625 144.875 C-143.62601212 143.72633957 -143.62601212 143.72633957 -143.62704468 142.55447388 C-143.61150998 131.48085077 -143.21302907 121.0113429 -140.375 110.25 C-140.06621365 108.92582615 -139.75762612 107.60160592 -139.44921875 106.27734375 C-133.2198207 81.26788127 -119.18982354 59.5223471 -101.375 41.25 C-100.80910156 40.62222656 -100.24320313 39.99445313 -99.66015625 39.34765625 C-74.89953869 12.57090698 -35.38991059 0.02786458 0 0 Z M-10.375 53.25 C-15.1678795 59.33825234 -15.52437601 64.48879835 -15.53613281 72.01855469 C-15.54109772 72.78511383 -15.54606262 73.55167297 -15.55117798 74.34146118 C-15.56573856 76.86827506 -15.5725918 79.39502613 -15.578125 81.921875 C-15.58388198 83.68678793 -15.58963964 85.45170085 -15.59539795 87.21661377 C-15.60589094 90.91524546 -15.61174456 94.61385553 -15.61523438 98.3125 C-15.62071196 103.03438136 -15.64473144 107.75597335 -15.67320633 112.47776413 C-15.69190062 116.12393 -15.69704194 119.77002714 -15.69857025 123.41623688 C-15.70158258 125.15603465 -15.70956273 126.89583161 -15.72275543 128.63558197 C-16.43170908 142.60175449 -16.43170908 142.60175449 -10.97470093 154.87257385 C-9.19398106 156.50203357 -7.35844765 157.87439623 -5.375 159.25 C-4.62007263 159.7800766 -3.86514526 160.3101532 -3.08734131 160.85629272 C-0.49472085 162.63186727 2.12586043 164.35752515 4.7578125 166.07421875 C5.71267548 166.70229935 6.66753845 167.33037994 7.65133667 167.97749329 C10.68125814 169.96872392 13.71561897 171.95307363 16.75 173.9375 C18.79585152 175.28147704 20.84142721 176.62587406 22.88671875 177.97070312 C26.63270058 180.43038915 30.37874071 182.88997213 34.12939453 185.3425293 C34.87883331 185.83295212 35.62827209 186.32337494 36.40042114 186.82865906 C42.51523614 190.73557244 46.30823042 192.2952528 53.625 191.25 C58.46358548 188.92031069 61.29531069 186.08858548 63.625 181.25 C64.3853383 176.48624778 64.18563082 172.58483529 62.3125 168.125 C54.76760277 160.05371459 44.25991691 154.21566455 35.08764648 148.1015625 C33.03095558 146.72894757 30.97933538 145.34895771 28.92773438 143.96875 C27.61748748 143.09330086 26.30695167 142.21828395 24.99609375 141.34375 C24.38471054 140.93137085 23.77332733 140.5189917 23.14341736 140.09411621 C20.14298873 137.93269351 20.14298873 137.93269351 16.625 137.25 C16.63166183 136.35543594 16.63832367 135.46087189 16.64518738 134.53919983 C16.70547115 126.08024936 16.75106188 117.62137177 16.78043652 109.16225529 C16.79604635 104.81404974 16.81719831 100.46602274 16.85131836 96.11791992 C16.88407983 91.91632283 16.90188818 87.71489673 16.90963173 83.51318169 C16.91514527 81.91571807 16.92591142 80.31826307 16.94219017 78.72087288 C17.58201227 65.33213476 17.58201227 65.33213476 12.17277527 53.64784241 C7.45615116 49.55345102 4.22135947 48.89410341 -1.8359375 48.97265625 C-5.59960402 49.38376444 -7.59290187 50.7328636 -10.375 53.25 Z " fill="#000000" transform="translate(255.375,111.75)"/>
<path d="M0 0 C1.29427666 -0.01058945 1.29427666 -0.01058945 2.61470032 -0.02139282 C38.03028582 -0.24546275 38.03028582 -0.24546275 53.671875 3.203125 C54.64785645 3.40711914 55.62383789 3.61111328 56.62939453 3.82128906 C99.4592243 12.8818258 137.14412945 32.9400185 168.671875 63.203125 C169.44144531 63.93184814 169.44144531 63.93184814 170.2265625 64.67529297 C178.21397511 72.25978724 185.09229915 80.37990158 191.671875 89.203125 C192.30971924 90.04182129 192.30971924 90.04182129 192.96044922 90.89746094 C200.21657607 100.45512744 206.15048329 110.55870076 211.671875 121.203125 C212.06262207 121.95190918 212.45336914 122.70069336 212.85595703 123.47216797 C228.99098838 154.78753515 236.13083506 188.84398616 235.984375 223.890625 C235.98221985 224.81954559 235.9800647 225.74846619 235.97784424 226.70553589 C235.92798313 240.09381976 235.56420616 253.08452136 232.671875 266.203125 C232.36588379 267.66709717 232.36588379 267.66709717 232.05371094 269.16064453 C224.10368945 306.74098627 207.82824807 341.07825581 182.671875 370.203125 C181.89199219 371.11320312 181.11210937 372.02328125 180.30859375 372.9609375 C178.14271224 375.42378632 175.92842806 377.82307899 173.671875 380.203125 C173.20346191 380.69876953 172.73504883 381.19441406 172.25244141 381.70507812 C164.31013573 390.05045645 155.91082302 397.33518878 146.671875 404.203125 C146.11419434 404.6269043 145.55651367 405.05068359 144.98193359 405.48730469 C135.42270613 412.7452883 125.31845363 418.68061579 114.671875 424.203125 C113.54869873 424.78924561 113.54869873 424.78924561 112.40283203 425.38720703 C81.08746485 441.52223838 47.03101384 448.66208506 11.984375 448.515625 C11.05545441 448.51346985 10.12653381 448.5113147 9.16946411 448.50909424 C-4.22430337 448.45921271 -17.20174989 448.07614604 -30.328125 445.203125 C-31.7522168 444.91308594 -31.7522168 444.91308594 -33.20507812 444.6171875 C-85.61112014 433.836516 -135.13530384 404.34158481 -167.07666016 360.90332031 C-168.32544941 359.20675996 -169.59699603 357.52916525 -170.87109375 355.8515625 C-177.63133688 346.81745501 -183.13801621 337.20888492 -188.328125 327.203125 C-188.91424561 326.07994873 -188.91424561 326.07994873 -189.51220703 324.93408203 C-199.88463933 304.80294508 -206.28387438 283.43568988 -210.328125 261.203125 C-210.45944824 260.50380859 -210.59077148 259.80449219 -210.72607422 259.08398438 C-212.40155534 249.80656576 -212.5754563 240.48201473 -212.703125 231.078125 C-212.72930908 229.90282227 -212.75549316 228.72751953 -212.7824707 227.51660156 C-212.79495836 221.10626966 -212.7213031 217.03079324 -208.328125 212.203125 C-204.50882328 208.57478837 -201.44533494 207.89312042 -196.328125 207.703125 C-191.21091506 207.89312042 -188.14742672 208.57478837 -184.328125 212.203125 C-179.68668541 217.97356341 -179.29131277 223.34088364 -179.03808594 230.46875 C-177.10096936 284.2627 -153.25575888 331.51302376 -114.52001953 368.2109375 C-105.08096739 376.78998244 -94.3730999 383.87652085 -83.328125 390.203125 C-82.20535156 390.85796875 -81.08257812 391.5128125 -79.92578125 392.1875 C-59.23013152 403.93914371 -35.81515187 410.87375614 -12.328125 414.203125 C-11.66917236 414.29883789 -11.01021973 414.39455078 -10.33129883 414.49316406 C38.09198852 420.73844185 89.07676359 406.23563703 127.72705078 376.72363281 C142.12580649 365.46635808 154.85993346 352.96082676 165.671875 338.203125 C166.08791992 337.63674316 166.50396484 337.07036133 166.93261719 336.48681641 C196.15938382 296.10010677 208.48567727 245.28052741 201.08251953 195.96362305 C194.60397057 157.09594052 177.84813973 121.81416147 150.671875 93.203125 C150.18267578 92.68137695 149.69347656 92.15962891 149.18945312 91.62207031 C134.94459363 76.51415018 118.99877147 64.91548156 100.671875 55.203125 C99.97658691 54.83348633 99.28129883 54.46384766 98.56494141 54.08300781 C54.91051364 31.29491345 2.50911267 27.19475082 -44.37426758 41.85473633 C-60.43514678 47.09017634 -76.23171889 53.80552092 -90.328125 63.203125 C-89.13316406 63.24179688 -89.13316406 63.24179688 -87.9140625 63.28125 C-79.91741837 63.70929421 -75.5896198 64.76997258 -69.953125 70.703125 C-67.55508925 75.86812509 -67.57430965 80.6033538 -68.328125 86.203125 C-70.48303671 90.8444733 -73.53155286 94.27449626 -78.328125 96.203125 C-82.82691651 96.80283381 -87.29504401 96.76344434 -91.828125 96.734375 C-93.13716797 96.7382019 -94.44621094 96.74202881 -95.79492188 96.74597168 C-98.55878696 96.75185105 -101.32213302 96.74335541 -104.0859375 96.72460938 C-107.61675331 96.70181942 -111.14635277 96.71495109 -114.67712402 96.73889923 C-118.06088677 96.75688456 -121.44432776 96.74426732 -124.828125 96.734375 C-126.72208008 96.74652039 -126.72208008 96.74652039 -128.65429688 96.75891113 C-139.76883372 96.64029241 -139.76883372 96.64029241 -144.328125 92.203125 C-149.74885359 86.63320204 -148.90622427 80.00881487 -148.859375 72.703125 C-148.8632019 71.39408203 -148.86702881 70.08503906 -148.87097168 68.73632812 C-148.87685105 65.97246304 -148.86835541 63.20911698 -148.84960938 60.4453125 C-148.82681942 56.91449669 -148.83995109 53.38489723 -148.86389923 49.85412598 C-148.88188456 46.47036323 -148.86926732 43.08692224 -148.859375 39.703125 C-148.86747192 38.44048828 -148.87556885 37.17785156 -148.88391113 35.87695312 C-148.76807281 25.02293955 -148.76807281 25.02293955 -144.328125 20.203125 C-140.50882328 16.57478837 -137.44533494 15.89312042 -132.328125 15.703125 C-127.21091506 15.89312042 -124.14742672 16.57478837 -120.328125 20.203125 C-115.42709095 25.50154019 -115.55094149 31.31809554 -115.328125 38.203125 C-114.83223877 37.89197754 -114.33635254 37.58083008 -113.82543945 37.26025391 C-79.77613691 16.03056636 -40.7080927 0.22238325 0 0 Z " fill="#000000" transform="translate(244.328125,31.796875)"/>
</svg>
