<?xml version="1.0" encoding="UTF-8"?>
<svg version="1.1" xmlns="http://www.w3.org/2000/svg" width="512" height="512">
<path d="M0 0 C0.6707959 0.22236328 1.3415918 0.44472656 2.03271484 0.67382812 C36.76655411 12.34175107 66.90504455 32.59092405 93 58 C93.93585938 58.89589844 94.87171875 59.79179688 95.8359375 60.71484375 C101.71894909 66.44399196 106.92683725 72.54958688 112 79 C112.79148437 79.97453125 113.58296875 80.9490625 114.3984375 81.953125 C130.94988628 102.73380832 143.45806523 126.91106253 152 152 C152.27682617 152.80727539 152.55365234 153.61455078 152.83886719 154.44628906 C173.44697959 215.67401022 167.46663272 282.80309063 139.33203125 340.5546875 C128.30088621 362.54699569 114.03096896 382.27749972 97 400 C96.43265137 400.59458008 95.86530273 401.18916016 95.28076172 401.80175781 C87.26096098 410.16443253 79.03003173 417.85631526 69.703125 424.74121094 C68.03965069 425.97069396 66.39472448 427.22216212 64.75 428.4765625 C14.63816195 466.0753464 -50.3405851 480.70979183 -112 473 C-163.340541 465.65328959 -210.63408378 442.90789953 -248 407 C-248.59458008 406.43265137 -249.18916016 405.86530273 -249.80175781 405.28076172 C-258.70247208 396.74498133 -266.6804394 387.91974467 -274 378 C-274.83712299 376.89314098 -275.67436192 375.78636963 -276.51171875 374.6796875 C-292.35139677 353.44018974 -304.1016198 329.23237449 -312 304 C-312.23557617 303.25186035 -312.47115234 302.5037207 -312.71386719 301.73291016 C-331.93933861 239.57238094 -323.79586519 172.53077282 -294.0625 115.125 C-289.57774553 106.69878307 -284.54518496 98.76285092 -279 91 C-278.54399414 90.35466309 -278.08798828 89.70932617 -277.61816406 89.04443359 C-270.18263 78.58518373 -261.95111658 69.18110688 -253 60 C-252.01817037 58.97792106 -251.03639626 57.95578879 -250.0546875 56.93359375 C-244.05827494 50.79196893 -237.75152386 45.29223416 -231 40 C-230.02675781 39.20980469 -229.05351562 38.41960938 -228.05078125 37.60546875 C-164.63245108 -12.92230999 -76.15621117 -25.75151227 0 0 Z M-144 93 C-144.77859375 93.69738281 -145.5571875 94.39476563 -146.359375 95.11328125 C-163.33714592 111.12507554 -174.36656276 134.71869366 -175.23828125 158.08203125 C-175.79775486 186.82091133 -167.36800992 211.14113006 -147.55517578 232.41992188 C-129.52275558 250.74108726 -104.47508443 260.55114561 -78.95703125 261.0390625 C-55.67893588 260.94901184 -33.61846231 251.99192438 -16 237 C-14.98486328 236.20335937 -14.98486328 236.20335937 -13.94921875 235.390625 C3.64158008 221.14877584 14.0144487 198.02029752 17 176 C17.27567011 172.24432299 17.33493856 168.51486998 17.3125 164.75 C17.30404053 163.24457642 17.30404053 163.24457642 17.29541016 161.70874023 C16.83896397 133.56499147 4.50009761 111.18306686 -15.15625 91.8828125 C-34.79865218 73.76994164 -60.41099917 67.08962903 -86.50097656 67.86376953 C-107.6497804 69.01666446 -128.50279426 78.84296142 -144 93 Z M-222.55224609 346.35253906 C-229.09053371 353.79273549 -236.87493485 363.59291612 -240 373 C-234.58318984 386.93173035 -215.81339509 398.63360521 -204 407 C-203.37416016 407.44923828 -202.74832031 407.89847656 -202.10351562 408.36132812 C-156.39883273 440.95202124 -98.22025883 453.08658516 -43.1328125 444.0703125 C0.36186767 436.39702126 39.25812104 416.59405024 71 386 C72.07105776 385.00330754 73.14268448 384.0072262 74.21484375 383.01171875 C75.24858929 382.02990089 76.28118064 381.04686606 77.3125 380.0625 C78.69888672 378.74958984 78.69888672 378.74958984 80.11328125 377.41015625 C82.20912552 375.25068213 82.20912552 375.25068213 81.9765625 373.0234375 C67.72818851 343.50080659 41.80651728 321.34087055 11.27514648 310.01757812 C-3.64748241 304.83086746 -19.16701445 302.85719379 -34.8996582 302.83886719 C-35.94027908 302.83390228 -36.98089996 302.82893738 -38.05305481 302.82382202 C-41.46897058 302.8093142 -44.88483983 302.80241544 -48.30078125 302.796875 C-49.47898123 302.79404762 -50.65718121 302.79122025 -51.87108421 302.78830719 C-58.11335851 302.77335638 -64.35560997 302.76410251 -70.59790039 302.75976562 C-76.98759638 302.75430478 -83.37707674 302.73031527 -89.76670551 302.70179367 C-94.73012362 302.68299674 -99.6934917 302.67795258 -104.65694237 302.67642975 C-107.00923013 302.67343811 -109.36151777 302.66553068 -111.71376991 302.65224457 C-155.2014177 302.4242583 -192.33550346 313.75000142 -222.55224609 346.35253906 Z " fill="#000000" transform="translate(335,25)"/>
</svg>
