<?xml version="1.0" encoding="UTF-8"?>
<svg version="1.1" xmlns="http://www.w3.org/2000/svg" width="512" height="512">
<path d="M0 0 C1.19796707 0.06435242 1.19796707 0.06435242 2.4201355 0.13000488 C38.97771396 2.15793584 77.34707852 7.42813883 110.3125 24.25 C111.26253906 24.70890625 112.21257812 25.1678125 113.19140625 25.640625 C120.22912782 29.20353272 125.74234528 33.689449 131.3125 39.25 C131.91578125 39.84167969 132.5190625 40.43335938 133.140625 41.04296875 C146.53657942 55.22139714 167.3125 87.59194744 167.3125 107.25 C168.32608078 107.23667633 168.32608078 107.23667633 169.36013794 107.2230835 C176.40048758 107.1345089 183.44067862 107.07422329 190.48144531 107.03027344 C193.10813833 107.01017285 195.73478669 106.98288796 198.36132812 106.94824219 C202.13943512 106.89965836 205.91694984 106.87701491 209.6953125 106.859375 C210.86740265 106.83872986 212.0394928 106.81808472 213.24710083 106.79681396 C219.5278941 106.79508997 223.65550471 106.81393218 228.3125 111.25 C232.22445541 116.81050475 230.75495864 124.87241516 229.71289062 131.22167969 C229.06477938 134.80603948 228.3207492 138.3668614 227.54150391 141.92480469 C227.05944941 144.1390122 226.60491846 146.35772608 226.15234375 148.578125 C225.84797572 150.00815859 225.54204167 151.43785997 225.234375 152.8671875 C224.96206055 154.14190918 224.68974609 155.41663086 224.40917969 156.72998047 C223.0061626 161.23325304 220.83878979 164.60602899 217.640625 168.05078125 C213.95822956 169.94758561 210.14847794 170.08955344 206.0625 170.4375 C205.22203125 170.51935547 204.3815625 170.60121094 203.515625 170.68554688 C201.44899217 170.88516482 199.38085752 171.06912511 197.3125 171.25 C197.90417969 172.14460937 198.49585938 173.03921875 199.10546875 173.9609375 C213.74560471 196.2697161 220.33346676 220.29217446 215.59375 247.16015625 C214.76057402 250.94884917 213.61187957 254.59390257 212.3125 258.25 C211.75175781 259.83748047 211.75175781 259.83748047 211.1796875 261.45703125 C207.45278866 271.07045574 203.13313036 279.92234983 195.13671875 286.546875 C187.08328223 295.27014026 189.07925009 307.27561907 189.3125 318.4375 C189.34096975 321.8478387 189.35536911 325.25784128 189.36181641 328.66828918 C189.37038262 330.77981229 189.39395262 332.89134685 189.43505859 335.00248718 C189.54414454 343.48626614 188.78278387 350.37307171 183.3125 357.25 C177.37331906 363.18918094 169.98462829 363.47532572 162.01368713 363.55354309 C160.47743935 363.55217598 160.47743935 363.55217598 158.91015625 363.55078125 C157.83301865 363.55506638 156.75588104 363.5593515 155.64610291 363.56376648 C153.37776388 363.56948603 151.10940651 363.57002765 148.84106445 363.56567383 C145.38916473 363.56251297 141.9381222 363.58600694 138.48632812 363.61132812 C136.27343857 363.61360141 134.06054673 363.61430448 131.84765625 363.61328125 C130.82551529 363.622491 129.80337433 363.63170074 128.7502594 363.64118958 C121.61856651 363.59560706 114.78434334 362.91619021 108.97265625 358.453125 C108.44542969 357.80859375 107.91820312 357.1640625 107.375 356.5 C106.55708984 355.54867187 106.55708984 355.54867187 105.72265625 354.578125 C99.91172378 344.98445255 102.3125 334.19573753 102.3125 323.25 C17.8325 323.25 -66.6475 323.25 -153.6875 323.25 C-153.6875 330.51 -153.6875 337.77 -153.6875 345.25 C-157.08621677 355.44615032 -157.08621677 355.44615032 -160.4375 358.1875 C-161.38882813 359.00541016 -161.38882813 359.00541016 -162.359375 359.83984375 C-168.82672435 363.75714763 -175.65383242 363.55727893 -182.9921875 363.55078125 C-184.61001633 363.55720894 -184.61001633 363.55720894 -186.26052856 363.56376648 C-188.53484396 363.56949179 -190.80917765 363.57002335 -193.08349609 363.56567383 C-196.54426647 363.56251663 -200.00417903 363.58598699 -203.46484375 363.61132812 C-205.6822906 363.61360172 -207.89973972 363.61430433 -210.1171875 363.61328125 C-211.14246552 363.622491 -212.16774353 363.63170074 -213.22409058 363.64118958 C-220.809518 363.59286704 -227.88137667 362.6547784 -234.0625 357.9375 C-241.41013155 350.41492484 -240.8064581 341.60594667 -240.7578125 331.75390625 C-240.76639396 329.48111212 -240.77686883 327.20832449 -240.7890625 324.93554688 C-240.8057724 321.36921143 -240.81244203 317.80433974 -240.78710938 314.23803711 C-240.76612866 310.78408631 -240.78938716 307.33273311 -240.8203125 303.87890625 C-240.80292023 302.81829483 -240.78552795 301.75768341 -240.76760864 300.66493225 C-240.85482211 295.2964441 -241.17686103 292.11802278 -245.07543945 288.23803711 C-245.99194023 287.48072548 -245.99194023 287.48072548 -246.92695618 286.70811462 C-249.79583111 284.33205989 -251.71396098 281.3396071 -253.75 278.25 C-254.17482666 277.60554932 -254.59965332 276.96109863 -255.03735352 276.29711914 C-259.29602156 269.61858759 -262.24155164 262.76543868 -264.6875 255.25 C-265.02652344 254.22519531 -265.36554688 253.20039063 -265.71484375 252.14453125 C-271.52936476 230.57453394 -268.83385378 205.09793588 -258.6875 185.25 C-255.64756704 180.02909968 -252.35452804 175.05047307 -248.6875 170.25 C-249.54472656 170.27320313 -250.40195313 170.29640625 -251.28515625 170.3203125 C-263.74149782 170.51691767 -263.74149782 170.51691767 -268.6875 168.25 C-272.78360983 164.02881811 -274.44870463 160.90319782 -275.75 155.0625 C-275.98251465 154.03624512 -275.98251465 154.03624512 -276.21972656 152.98925781 C-276.54964688 151.51817023 -276.87152248 150.04525928 -277.18603516 148.57080078 C-277.70390787 146.17406368 -278.26130833 143.78887423 -278.82421875 141.40234375 C-283.79981771 119.82782038 -283.79981771 119.82782038 -280.47265625 112.6171875 C-278.41159615 109.88414063 -276.73982326 108.78018247 -273.6875 107.25 C-270.99821472 106.88923645 -270.99821472 106.88923645 -268.07104492 106.90942383 C-266.97028122 106.90965042 -265.86951752 106.90987701 -264.73539734 106.91011047 C-263.5581459 106.92559433 -262.38089447 106.94107819 -261.16796875 106.95703125 C-259.95426102 106.96127609 -258.74055328 106.96552094 -257.49006653 106.96989441 C-253.6181509 106.98667092 -249.74675801 107.02432267 -245.875 107.0625 C-243.2480544 107.0775481 -240.62110063 107.09123629 -237.99414062 107.10351562 C-231.55841576 107.13657119 -225.12299523 107.18676117 -218.6875 107.25 C-218.46935135 106.09408104 -218.46935135 106.09408104 -218.24679565 104.91481018 C-212.95962804 79.72366489 -194.03349637 44.88970053 -172.42578125 29.91796875 C-137.82639307 7.3373657 -91.58366532 2.14677127 -51.375 0 C-50.60757477 -0.04119965 -49.84014954 -0.08239929 -49.04946899 -0.12484741 C-32.6670453 -0.97589669 -16.37829876 -0.88079625 0 0 Z M-152.0390625 65.59375 C-160.16135154 73.7545333 -164.91828541 82.92987635 -169.6875 93.25 C-170.06583984 94.05888672 -170.44417969 94.86777344 -170.83398438 95.70117188 C-172.02494872 98.2543632 -173.20286474 100.81311373 -174.375 103.375 C-174.73134521 104.1489209 -175.08769043 104.9228418 -175.45483398 105.72021484 C-178.6426606 112.80869233 -181.04546148 119.85229213 -183.6875 127.25 C-79.4075 127.25 24.8725 127.25 132.3125 127.25 C126.39234577 111.3554003 126.39234577 111.3554003 119.8125 95.75 C119.44068604 94.93233154 119.06887207 94.11466309 118.68579102 93.2722168 C115.41689968 86.22880677 111.77942168 79.62100345 107.3125 73.25 C106.74660156 72.42242187 106.18070312 71.59484375 105.59765625 70.7421875 C99.81692356 63.27909716 91.79102128 59.86556525 83.3125 56.25 C82.23355469 55.78851563 81.15460938 55.32703125 80.04296875 54.8515625 C21.59993943 32.22380515 -100.79126371 21.99833745 -152.0390625 65.59375 Z M-200.3671875 208.08984375 C-207.13485512 216.32215586 -209.42401603 225.26896245 -209.06640625 235.82421875 C-207.80885145 247.19406986 -202.09117954 255.69184301 -193.5625 263.0625 C-185.59472062 268.89920381 -175.4754314 271.49291192 -165.6875 270.25 C-155.16954296 268.55257754 -146.56406571 263.44371433 -139.9296875 255.06640625 C-133.37235636 245.47785599 -131.16130948 235.04803945 -133.15234375 223.5703125 C-135.86521411 213.26461562 -142.13847786 205.46491412 -150.6875 199.25 C-168.29150363 189.48880568 -187.02583751 193.47641155 -200.3671875 208.08984375 Z M102.3125 198.25 C101.54421875 198.65089844 100.7759375 199.05179688 99.984375 199.46484375 C91.93622184 204.18697443 85.54751387 212.28377867 82.77734375 221.24609375 C80.50619712 231.03683511 81.09591383 240.83526081 85.67578125 249.96875 C88.41233112 254.21146298 91.54864815 257.87218424 95.3125 261.25 C96.034375 261.930625 96.75625 262.61125 97.5 263.3125 C105.95687333 269.13834607 115.22013369 270.98715823 125.3125 270.25 C132.11308244 268.98175629 137.75017452 266.31521924 143.3125 262.25 C144.55 261.34701172 144.55 261.34701172 145.8125 260.42578125 C148.48176819 258.10268378 150.13255145 255.87131071 152 252.875 C152.58136719 251.95976562 153.16273438 251.04453125 153.76171875 250.1015625 C158.37473771 241.61918507 159.32782507 232.0768653 157.1015625 222.7265625 C153.4301147 211.20330553 146.86130235 203.08099628 136.3125 197.25 C125.7409102 191.89372783 112.56032011 192.61369894 102.3125 198.25 Z " fill="#000000" transform="translate(281.6875,74.75)"/>
</svg>
