<?xml version="1.0" encoding="UTF-8"?>
<svg version="1.1" xmlns="http://www.w3.org/2000/svg" width="512" height="512">
<path d="M0 0 C55.20847458 0 55.20847458 0 64 7 C67.19806255 10.1989698 70.1784286 13.58948058 73.16992188 16.98046875 C81.76117369 26.45493337 91.47368291 31.99747254 104.40357971 33.35818481 C107.95573961 33.48717107 111.48868283 33.50189198 115.04296875 33.46875 C117.01389211 33.47952356 118.98481563 33.4903196 120.95573139 33.50240326 C124.36634435 33.51807982 127.77687503 33.50837099 131.1875 33.5 C135.27719353 33.48999072 139.36648288 33.48477348 143.45613098 33.5098877 C145.98823167 33.52375967 148.52050631 33.52044067 151.05253601 33.49694824 C161.44620268 33.55802448 169.55366287 35.77838982 177.2421875 43 C184.07483359 50.77403288 185.36504914 58.30596539 185.28125 68.3828125 C184.67827068 76.13779654 181.63567699 82.60935244 176 88 C167.95994988 93.68819872 160.64175645 96.3003228 150.72558594 96.28710938 C149.92958984 96.29394241 149.13359375 96.30077545 148.31347656 96.30781555 C146.59751932 96.32133232 144.88152263 96.33043113 143.16551971 96.33552551 C140.45039509 96.34385423 137.73560041 96.36439204 135.02056885 96.38806152 C128.28380312 96.44430475 121.5469577 96.47974136 114.81005859 96.51568604 C109.10360293 96.54690583 103.3973106 96.58605575 97.69098663 96.63594055 C95.01481458 96.65602159 92.33876832 96.66432822 89.66253662 96.67224121 C88.02729834 96.68520906 86.39206431 96.69872869 84.75683594 96.71289062 C84.01185852 96.71190872 83.2668811 96.71092682 82.49932861 96.70991516 C78.78612201 96.75482946 77.17285931 96.88476046 74 99 C73.33323122 102.45749949 73.33323122 102.45749949 74 106 C77.96859752 109.25547942 81.33523369 109.374739 86.35375977 109.37231445 C87.07648575 109.37596512 87.79921173 109.37961578 88.5438385 109.38337708 C90.92660245 109.39146281 93.30868152 109.37788002 95.69140625 109.36328125 C97.35945129 109.36276201 99.02749695 109.36328219 100.69554138 109.36479187 C104.19336071 109.36470221 107.69094929 109.35429269 111.1887207 109.33618164 C115.64123878 109.31361803 120.09341632 109.31292875 124.54597569 109.31969929 C127.99412483 109.32306672 131.44219844 109.31635541 134.89033318 109.30657005 C136.52994324 109.30275607 138.16956177 109.30155381 139.80917549 109.3031559 C153.33232997 109.30536324 165.40821469 107.84156382 178.26953125 103.5 C179.32345062 103.15233582 180.37737 102.80467163 181.46322632 102.44647217 C184.91569488 101.30565537 188.36399461 100.15273515 191.8125 99 C194.2559514 98.19078038 196.69972385 97.38252961 199.14379883 96.57519531 C203.58347999 95.10784536 208.02237914 93.63822034 212.45990658 92.16437149 C231.7634221 85.75307706 251.10019761 79.44217765 270.43945312 73.13964844 C274.81186578 71.71461031 279.18283774 70.28527332 283.55273438 68.85253906 C288.71637071 67.16046444 293.88378971 65.48047925 299.05435181 63.80969238 C300.95181771 63.1945499 302.84800025 62.57543221 304.74276733 61.95202637 C307.33420172 61.10021269 309.92996849 60.26317934 312.52734375 59.4296875 C313.2736908 59.18066681 314.02003784 58.93164612 314.78900146 58.67507935 C322.49357765 56.23891018 329.10909913 56.35530717 336.59765625 59.59765625 C342.18558319 62.85955181 346.06475804 67.85223135 348 74 C348.8412496 81.33215441 349.09101249 88.63862198 344.76733398 94.90527344 C338.91422897 101.84264614 329.5643077 106.12873135 321.76751709 110.50735474 C319.94153172 111.53283604 318.11905801 112.56432969 316.29736328 113.59741211 C314.39888576 114.67403211 312.5002564 115.750368 310.60061646 116.82493591 C304.33798763 120.36821632 298.10430484 123.96098999 291.875 127.5625 C289.72917762 128.80210229 287.58334428 130.04168562 285.4375 131.28125 C284.37789063 131.89355469 283.31828125 132.50585938 282.2265625 133.13671875 C278.96475993 135.0203505 275.70138156 136.90122321 272.4375 138.78125 C261.94261084 144.82747312 251.45769461 150.88963481 241 157 C229.46007441 163.74270595 217.88564479 170.42462525 206.30419922 177.09570312 C201.8641099 179.65464333 197.42655151 182.21795412 192.98925781 184.78173828 C190.80082167 186.04489508 188.611379 187.30630979 186.42089844 188.56591797 C181.35042124 191.48171198 176.29130665 194.41258269 171.26171875 197.3984375 C145.28206365 212.7341181 118.86700446 219.56135733 89 212 C74.1837952 207.87494611 61.19188608 199.69126934 48 192 C46.98808594 191.41089844 45.97617188 190.82179688 44.93359375 190.21484375 C41.95450543 188.47866059 38.9772469 186.73933898 36 185 C23.75043619 177.85442111 11.37332621 170.92906268 -1 164 C-0.67 109.88 -0.34 55.76 0 0 Z " fill="#000000" transform="translate(145,259)"/>
<path d="M0 0 C0.74851227 -0.0049649 1.49702454 -0.00992981 2.26821899 -0.01504517 C4.74034553 -0.02962896 7.21240786 -0.03646308 9.68457031 -0.04199219 C11.40846762 -0.04774751 13.13236492 -0.0535052 14.85626221 -0.05926514 C18.4709096 -0.0697649 22.08553482 -0.07561402 25.70019531 -0.07910156 C30.31795358 -0.08457885 34.93541589 -0.10859476 39.55308151 -0.13707352 C43.11514118 -0.15575625 46.67713042 -0.16090853 50.23923492 -0.16243744 C51.94078435 -0.16545266 53.64233287 -0.17344277 55.34383392 -0.18662262 C57.73205144 -0.20379874 60.11955721 -0.2017749 62.5078125 -0.1953125 C63.20212372 -0.20452728 63.89643494 -0.21374207 64.61178589 -0.22323608 C70.59138408 -0.17289556 76.11790959 1.12931983 80.75488281 5.06347656 C81.29371094 5.73507813 81.83253906 6.40667969 82.38769531 7.09863281 C82.94199219 7.76765625 83.49628906 8.43667969 84.06738281 9.12597656 C87.1969801 13.53278787 87.76526102 16.54126769 87.78012085 22.00421143 C87.78465196 22.69210495 87.78918308 23.37999847 87.79385149 24.08873725 C87.80650919 26.39321088 87.80487426 28.69744858 87.80322266 31.00195312 C87.80920716 32.65456954 87.81601253 34.30718316 87.82357788 35.95979309 C87.84125558 40.44963454 87.84593408 44.93939977 87.84720945 49.42927265 C87.8486309 52.23548742 87.85290044 55.04168281 87.85820389 57.84789276 C87.87671181 67.64128347 87.88487377 77.43461972 87.88330078 87.22802734 C87.88209999 96.35072848 87.90318803 105.47319279 87.93478811 114.59583402 C87.96096291 122.43207957 87.97166753 130.26824785 87.97038996 138.10453677 C87.96988057 142.78292331 87.9755507 147.46109952 87.99674606 152.13944244 C88.0161481 156.54229387 88.01623957 160.94473481 88.0017128 165.34760094 C87.99962585 166.96003254 88.00431882 168.57248996 88.01643372 170.1848774 C88.08183424 179.49514975 88.0209447 186.71760558 81.83691406 194.18457031 C81.02673828 194.85359375 81.02673828 194.85359375 80.20019531 195.53613281 C79.40162109 196.22835937 79.40162109 196.22835937 78.58691406 196.93457031 C73.36506954 200.02244071 67.70968402 200.45733478 61.77661133 200.43579102 C61.03741455 200.44090195 60.29821777 200.44601288 59.53662109 200.45127869 C57.11319698 200.46508468 54.69006012 200.46422486 52.26660156 200.46191406 C50.56941117 200.46580572 48.87222175 200.47014136 47.17503357 200.47489929 C43.62536455 200.48234201 40.07579502 200.48208424 36.52612305 200.47680664 C31.99249706 200.47101228 27.45927965 200.48795156 22.92572117 200.51115131 C19.42284288 200.52593016 15.92006208 200.52675476 12.41715813 200.52364159 C10.74631885 200.52415264 9.0754738 200.5293495 7.40466499 200.53945351 C5.06223608 200.55188277 2.72059154 200.54498839 0.37817383 200.53344727 C-0.30207352 200.541091 -0.98232086 200.54873474 -1.68318176 200.55661011 C-7.90131405 200.48938158 -12.99355131 198.69139057 -18.23730469 195.47363281 C-24.28379881 189.25918052 -25.60889583 181.96533612 -25.62101746 173.53947449 C-25.62328301 172.88747851 -25.62554857 172.23548254 -25.62788278 171.56372911 C-25.63419478 169.38678754 -25.63339522 167.20990867 -25.63256836 165.03295898 C-25.63556162 163.46886617 -25.63896453 161.90477409 -25.64274597 160.34068298 C-25.65157369 156.09677165 -25.65392358 151.85288049 -25.65456176 147.60896087 C-25.65527301 144.95568301 -25.65740878 142.30241027 -25.66005898 139.64913368 C-25.66930867 130.38742371 -25.67339437 121.12572811 -25.67260742 111.86401367 C-25.67200688 103.23953309 -25.68255503 94.6151151 -25.69835109 85.99065036 C-25.71144059 78.57901789 -25.71679072 71.16740585 -25.71615201 63.75576192 C-25.71589742 59.33231709 -25.7187272 54.9089279 -25.72933006 50.48549461 C-25.73903466 46.3232143 -25.73907406 42.16104253 -25.73181343 37.99875832 C-25.73077049 36.47502102 -25.73311317 34.95127687 -25.73917389 33.42755127 C-25.81617414 12.72022853 -25.81617414 12.72022853 -18.48730469 5.16113281 C-12.54197378 0.76212115 -7.19822985 0.01145574 0 0 Z M13.63769531 138.09863281 C9.89042565 143.49910967 9.01869903 147.07977977 9.84472656 153.59082031 C11.28893184 159.14805464 14.70453684 162.84610847 19.26269531 166.16113281 C24.90929168 167.89854708 30.1403794 167.93669763 35.76269531 166.09863281 C40.18123822 162.98556849 43.7866053 159.33940285 45.51269531 154.16113281 C46.24694271 147.27605889 45.65330748 142.75655466 41.51269531 137.16113281 C37.41400616 133.27263285 33.80783964 131.42096047 28.20019531 130.78613281 C22.26633954 131.38957577 17.60490251 133.58301756 13.63769531 138.09863281 Z " fill="#000000" transform="translate(43.4873046875,235.8388671875)"/>
<path d="M0 0 C1.16208984 1.05574219 1.16208984 1.05574219 2.34765625 2.1328125 C2.96769531 2.67164063 3.58773437 3.21046875 4.2265625 3.765625 C14.96044432 13.67765508 26.29383925 30.01027954 27.09765625 45.0078125 C26.57968223 51.88650746 23.64819914 58.37751971 18.53515625 63.0703125 C10.55554902 68.23358777 3.683537 68.57175588 -5.61083984 68.53686523 C-6.89317001 68.54372849 -8.17550018 68.55059174 -9.49668884 68.55766296 C-12.99478221 68.57552132 -16.49262372 68.57443974 -19.99074888 68.56872058 C-22.92042785 68.56561754 -25.85005922 68.57173364 -28.77973139 68.57775933 C-35.69661947 68.59177939 -42.61338398 68.59026481 -49.53027344 68.57885742 C-56.64448202 68.56738321 -63.7583133 68.58144563 -70.87247217 68.6082539 C-77.00015443 68.63047253 -83.1277188 68.63703432 -89.25543845 68.63117748 C-92.90655344 68.62782082 -96.55742677 68.63013606 -100.20850754 68.64742851 C-104.28426423 68.66589179 -108.35929599 68.65164754 -112.43505859 68.63452148 C-113.6301857 68.64418945 -114.82531281 68.65385742 -116.05665588 68.66381836 C-124.25617807 68.59190403 -131.55263865 67.43754273 -138.08984375 62.16796875 C-138.60546875 61.51699219 -139.12109375 60.86601562 -139.65234375 60.1953125 C-140.18859375 59.54691406 -140.72484375 58.89851563 -141.27734375 58.23046875 C-145.26186037 52.15181698 -145.46257741 46.21169605 -144.65234375 39.1328125 C-140.57696975 24.61310794 -131.12073025 12.61666191 -120.65234375 2.1328125 C-119.99621094 1.46507812 -119.34007812 0.79734375 -118.6640625 0.109375 C-86.49823794 -30.33451034 -32.44811744 -28.19497686 0 0 Z " fill="#000000" transform="translate(363.65234375,173.8671875)"/>
<path d="M0 0 C13.10642701 9.91137808 22.83686365 22.95980971 28.06298828 38.63818359 C28.84471706 45.13550313 27.92545576 50.2936065 24.06298828 55.63818359 C20.03714417 59.84702061 16.80002634 62.53795733 10.77900696 62.75843811 C9.40402344 62.76133704 8.02902164 62.75867916 6.65405273 62.75170898 C5.90258972 62.75185501 5.15112671 62.75200104 4.37689209 62.75215149 C1.89332186 62.75145488 -0.59017334 62.74367427 -3.07373047 62.73583984 C-4.79580138 62.73397477 -6.51787283 62.73255129 -8.23994446 62.73155212 C-12.77240463 62.727734 -17.30483276 62.7179097 -21.83728027 62.70684814 C-26.46231655 62.6966189 -31.08735801 62.69205126 -35.71240234 62.68701172 C-44.78728621 62.67628682 -53.8621463 62.65921882 -62.93701172 62.63818359 C-63.46883057 61.55134277 -64.00064941 60.46450195 -64.54858398 59.34472656 C-65.26247792 57.89816744 -65.97660147 56.45172161 -66.69091797 55.00537109 C-67.2137738 53.93452271 -67.2137738 53.93452271 -67.74719238 52.84204102 C-70.84692944 46.58519757 -74.5227271 41.05686567 -78.93701172 35.63818359 C-79.60087891 34.81060547 -80.26474609 33.98302734 -80.94873047 33.13037109 C-87.12276122 25.84935147 -95.29570926 17.95883482 -103.93701172 13.63818359 C-99.6583552 3.53327138 -87.55291439 -2.9489715 -77.93701172 -7.36181641 C-52.31613077 -17.73335806 -22.93288679 -16.12296982 0 0 Z " fill="#000000" transform="translate(462.93701171875,141.36181640625)"/>
<path d="M0 0 C1.63956665 0.01353516 1.63956665 0.01353516 3.31225586 0.02734375 C22.90565642 0.44518154 39.73861835 8.03774002 54.30859375 20.921875 C56.5199535 23.26032439 57.4012226 24.295789 57.6875 27.4375 C57.08164063 27.83839844 56.47578125 28.23929688 55.8515625 28.65234375 C39.1453917 39.98683809 28.13231006 53.57722402 18.55908203 71.16259766 C18.02074738 72.15103668 17.48241272 73.13947571 16.92776489 74.15786743 C16.51847748 74.91014618 16.10919006 75.66242493 15.6875 76.4375 C6.0123751 76.50708365 -3.66266333 76.56035368 -13.33798409 76.59293652 C-17.83088154 76.60857653 -22.32360749 76.62978433 -26.81640625 76.66381836 C-31.15414994 76.69647129 -35.4917289 76.71436553 -39.82958603 76.72213173 C-41.48255887 76.7276646 -43.13552294 76.73846901 -44.78842545 76.75469017 C-47.10800746 76.77654371 -49.42691324 76.77946368 -51.74658203 76.77807617 C-53.72514694 76.78806892 -53.72514694 76.78806892 -55.74368286 76.79826355 C-60.37081111 76.33051775 -63.71508362 74.90862492 -67.140625 71.75390625 C-67.60984375 71.17511719 -68.0790625 70.59632813 -68.5625 70 C-69.04203125 69.42378906 -69.5215625 68.84757812 -70.015625 68.25390625 C-73.18668552 63.81251124 -73.98445267 60.19611394 -73.8828125 54.765625 C-71.05133816 38.2422268 -57.69964183 23.0028779 -44.65234375 13.5 C-31.07652786 4.43643371 -16.30387313 -0.1627463 0 0 Z " fill="#000000" transform="translate(192.3125,127.5625)"/>
<path d="M0 0 C10.06504602 10.69715036 12.12371146 21.56420696 11.8984375 35.58984375 C11.42346232 47.6452781 5.32230775 56.19733408 -3.3125 64.1875 C-13.57624096 72.74722219 -25.18177895 74.36098228 -38.14941406 73.60449219 C-50.46999747 72.33405028 -59.16489761 64.71183258 -66.75 55.5 C-73.40611292 45.9777988 -75.24724635 34.79714119 -73.8125 23.4375 C-71.77378599 12.90186384 -66.52501747 2.96356443 -57.8671875 -3.49609375 C-39.32359186 -15.91875323 -16.84467189 -15.61458407 0 0 Z " fill="#000000" transform="translate(335.375,58.625)"/>
<path d="M0 0 C8.13409474 5.5265926 13.27984983 12.20044409 16.42578125 21.578125 C18.14928375 31.2575936 17.75998841 42.12190026 12.8125 50.75 C6.74457984 59.24014491 -1.56777552 66.45487772 -12.06640625 68.50390625 C-23.65698939 69.84867004 -33.815231 67.91588067 -43.1875 60.75 C-49.80270864 55.36136129 -53.50564513 48.79556461 -56.1875 40.75 C-56.99237347 27.64771553 -56.74027437 17.821429 -47.9375 7.4375 C-34.98645682 -6.04172601 -16.52391714 -9.62835941 0 0 Z " fill="#000000" transform="translate(212.1875,43.25)"/>
<path d="M0 0 C8.13409474 5.5265926 13.27984983 12.20044409 16.42578125 21.578125 C18.14728637 31.24637595 17.77038354 42.13684039 12.8125 50.75 C5.78867273 60.35429033 -2.43103149 66.50320824 -14.1875 68.75 C-24.95023997 69.87400575 -34.58175751 67.32980728 -43.1875 60.75 C-49.73234709 55.41867664 -54.68481885 48.1893002 -56.1875 39.75 C-57.03315431 27.31472272 -56.35082724 17.255937 -47.9375 7.375 C-34.92585453 -6.01871663 -16.52304096 -9.62784887 0 0 Z " fill="#000000" transform="translate(437.1875,43.25)"/>
</svg>
