<?xml version="1.0" encoding="UTF-8"?>
<svg version="1.1" xmlns="http://www.w3.org/2000/svg" width="512" height="512">
<path d="M0 0 C0.91431793 0.00182281 1.82863586 0.00364563 2.7706604 0.00552368 C44.02104749 0.14340974 83.8141607 9.00540367 120.375 28.3125 C121.27001221 28.77994629 121.27001221 28.77994629 122.18310547 29.25683594 C153.26672789 45.64401764 179.72185987 72.02552739 190.625 105.9375 C193.85851916 116.51734777 194.69187382 126.7595126 194.7109375 137.78125 C194.71738586 139.15165334 194.72411562 140.52205539 194.73110962 141.89245605 C194.74299477 144.74653309 194.74679926 147.60048986 194.74560547 150.45458984 C194.74540201 154.08219809 194.77277071 157.70902541 194.80714989 161.33644867 C194.82955415 164.16090329 194.83343903 166.98517333 194.83238602 169.80970764 C194.83583936 171.78754506 194.85739828 173.7653249 194.87948608 175.74304199 C194.82698737 186.19432441 192.79806841 194.88222271 186.375 203.3125 C185.776875 204.116875 185.17875 204.92125 184.5625 205.75 C182.32749853 208.36814458 180.25137089 210.06272255 177.375 211.9375 C176.529375 212.50726563 175.68375 213.07703125 174.8125 213.6640625 C165.55610227 218.10292596 156.05904672 218.75015676 145.94018555 218.69345093 C144.63982959 218.6981309 143.33947363 218.70281087 141.99971294 218.70763266 C138.42421125 218.72005499 134.84895247 218.71401277 131.27345037 218.70467401 C127.40425894 218.69784752 123.53510741 218.70838247 119.66592407 218.71661377 C112.09956326 218.72991513 104.53329201 218.72708947 96.96692777 218.71837585 C90.81456346 218.7115855 84.66222416 218.71068841 78.50985718 218.7139473 C77.63238286 218.714407 76.75490854 218.71486669 75.85084409 218.71534032 C74.06796526 218.71629955 72.28508645 218.71727219 70.50220764 218.7182581 C53.80574773 218.72680145 37.10933733 218.71699443 20.41288555 218.700857 C6.10368277 218.68745478 -8.20544698 218.68978317 -22.51464844 218.70361328 C-39.15361196 218.71968775 -55.79253214 218.72597758 -72.43150234 218.71677649 C-74.20762061 218.7158209 -75.98373889 218.71487778 -77.75985718 218.7139473 C-78.63361584 218.71348447 -79.50737451 218.71302164 -80.40761071 218.71254479 C-86.54865744 218.7099605 -92.68967655 218.71431377 -98.83071899 218.72138596 C-106.32022614 218.72982192 -113.80963902 218.72747688 -121.29913545 218.71154372 C-125.11636047 218.70368913 -128.93342864 218.70052107 -132.75065231 218.71049118 C-136.89729843 218.72115747 -141.04355256 218.70837463 -145.19018555 218.69345093 C-146.38436757 218.70014309 -147.57854959 218.70683526 -148.80891895 218.71373022 C-161.20581834 218.62746184 -171.87267284 216.24972526 -181.625 208.3125 C-189.23078722 200.56534127 -193.71653357 191.16963582 -193.78613281 180.31323242 C-193.79574036 179.10064255 -193.8053479 177.88805267 -193.81524658 176.63871765 C-193.81949646 175.32837051 -193.82374634 174.01802338 -193.828125 172.66796875 C-193.83095238 171.99530787 -193.83377975 171.32264698 -193.83669281 170.62960243 C-193.85167826 167.05913529 -193.86090761 163.48870836 -193.86523438 159.91821289 C-193.87067123 156.27189556 -193.89459778 152.62596077 -193.92320633 148.97976208 C-193.94207325 146.14228851 -193.9470512 143.3049019 -193.94857025 140.46737099 C-193.95298025 138.48310098 -193.9715203 136.49887797 -193.99053955 134.51469421 C-193.91209643 101.91354876 -177.74822493 75.50336603 -155.30078125 52.98046875 C-127.42001802 26.70912139 -89.64903861 11.87067377 -52.5625 4.5625 C-51.05755981 4.26424316 -51.05755981 4.26424316 -49.5222168 3.95996094 C-33.0783026 0.89781865 -16.69843675 -0.06965554 0 0 Z " fill="#000000" transform="translate(255.625,281.6875)"/>
<path d="M0 0 C0.93070313 0.77472656 1.86140625 1.54945312 2.8203125 2.34765625 C27.36250512 23.58978903 42.34841943 54.76365474 45 87 C47.10801112 122.56014003 37.41085228 156.10520075 13.625 183.0625 C12.09161308 184.71605012 10.54985669 186.36187677 9 188 C8.24074219 188.82371094 7.48148438 189.64742187 6.69921875 190.49609375 C-14.52741366 212.76495033 -45.42797989 226.18550939 -76.03515625 227.31640625 C-90.81801849 227.64641863 -104.73012838 226.96605843 -119 223 C-119.65387695 222.82871582 -120.30775391 222.65743164 -120.98144531 222.48095703 C-141.24932246 217.06265705 -158.91446076 205.27268926 -174 191 C-174.82371094 190.24074219 -175.64742187 189.48148438 -176.49609375 188.69921875 C-200.13932802 166.16253211 -212.54941082 133.76977553 -213.34960938 101.44824219 C-213.62307985 69.69411328 -203.78660836 39.28818098 -183 15 C-182.57638184 14.4942041 -182.15276367 13.9884082 -181.71630859 13.46728516 C-160.44119304 -11.7924139 -129.11434225 -27.19495317 -96.4375 -30.6875 C-61.2416665 -33.1755707 -26.82284445 -23.35215691 0 0 Z " fill="#000000" transform="translate(340,43)"/>
</svg>
